<svg xmlns="http://www.w3.org/2000/svg" width="23.523" height="23.861" viewBox="0 0 23.523 23.861">
  <path id="Path_5855" data-name="Path 5855" d="M81.574,489.786,77.5,485.975a2.025,2.025,0,0,0-2.651-.049l-.757.656a4.247,4.247,0,0,1-.909.63c-.373.048-.7-.147-1.2-.477l-.136-.09a15.8,15.8,0,0,1-5.008-5.335,1.354,1.354,0,0,1,.11-1.225l.934-1.246a2.019,2.019,0,0,0-.219-2.646l-3.3-3.13a3.723,3.723,0,0,0-2.033-1.317,2.466,2.466,0,0,0-2.138,1.465l-.119.183a8.262,8.262,0,0,0-1.119,6.486c.934,4.553,4.965,9.625,10.521,13.236a13.1,13.1,0,0,0,6.936,2.487,6.951,6.951,0,0,0,1.838-.239,6.217,6.217,0,0,0,3.794-2.932A2.347,2.347,0,0,0,81.574,489.786Zm-.769,2.018a4.788,4.788,0,0,1-2.941,2.224c-2.084.555-4.648-.146-7.625-2.08-5.255-3.415-9.056-8.146-9.916-12.348a6.93,6.93,0,0,1,.911-5.433l.129-.2c.378-.579.579-.836.882-.836h.015a4,4,0,0,1,1.119.906l3.331,3.163a.633.633,0,0,1,.065.8l-.935,1.246,0,0a2.725,2.725,0,0,0-.236,2.69,16.952,16.952,0,0,0,5.489,5.871l.131.085a3.058,3.058,0,0,0,2.156.7,4.169,4.169,0,0,0,1.629-.958l.759-.658a.625.625,0,0,1,.785.016l4.072,3.811A.958.958,0,0,1,80.806,491.8Z" transform="translate(-58.745 -471.742)" fill="#fff"/>
</svg>
