<svg id="Group_3171" data-name="Group 3171" xmlns="http://www.w3.org/2000/svg" width="234.677" height="212.975" viewBox="0 0 234.677 212.975">
  <g id="Group_2937" data-name="Group 2937" transform="translate(59.651 137.053)">
    <circle id="Ellipse_17" data-name="Ellipse 17" cx="37.961" cy="37.961" r="37.961" transform="translate(0 0)" fill="#e8ebec"/>
  </g>
  <g id="Group_2938" data-name="Group 2938" transform="translate(0 2.714)">
    <circle id="Ellipse_18" data-name="Ellipse 18" cx="32.538" cy="32.538" r="32.538" transform="translate(0 0)" fill="#e8ebec"/>
  </g>
  <g id="Group_2939" data-name="Group 2939" transform="translate(126.217 40.047)">
    <circle id="Ellipse_19" data-name="Ellipse 19" cx="54.23" cy="54.23" r="54.23" transform="translate(0 0)" fill="#e8ebec"/>
  </g>
  <g id="Group_2995" data-name="Group 2995" transform="translate(15.591 0)">
    <g id="Group_2940" data-name="Group 2940" transform="translate(10.165 12.877)">
      <circle id="Ellipse_20" data-name="Ellipse 20" cx="56.941" cy="56.941" r="56.941" fill="#fff"/>
    </g>
    <g id="Group_2941" data-name="Group 2941" transform="translate(22.817 25.529)">
      <path id="Path_7851" data-name="Path 7851" d="M211.047,124.067a56.914,56.914,0,0,1-80.04,80.039,56.921,56.921,0,1,0,80.04-80.039Z" transform="translate(-131.007 -124.067)" fill="#bdc3d8"/>
    </g>
    <g id="Group_2942" data-name="Group 2942" transform="translate(8.132 10.843)">
      <path id="Path_7852" data-name="Path 7852" d="M139.892,191.925a58.975,58.975,0,1,1,58.975-58.975A59.041,59.041,0,0,1,139.892,191.925Zm0-113.883A54.908,54.908,0,1,0,194.8,132.95,54.969,54.969,0,0,0,139.892,78.042Z" transform="translate(-80.917 -73.975)" fill="#21365f"/>
    </g>
    <g id="Group_2943" data-name="Group 2943" transform="translate(29.146 31.89)">
      <circle id="Ellipse_21" data-name="Ellipse 21" cx="37.961" cy="37.961" r="37.961" fill="#fff"/>
    </g>
    <g id="Group_2944" data-name="Group 2944" transform="translate(36.705 39.416)">
      <path id="Path_7853" data-name="Path 7853" d="M231.3,171.3a37.909,37.909,0,0,1-53.052,53.051A37.927,37.927,0,1,0,231.3,171.3Z" transform="translate(-178.244 -171.304)" fill="#bdc3d8"/>
    </g>
    <g id="Group_2945" data-name="Group 2945" transform="translate(27.112 29.855)">
      <path id="Path_7854" data-name="Path 7854" d="M185.652,218.705a39.995,39.995,0,1,1,39.995-39.995A40.041,40.041,0,0,1,185.652,218.705Zm0-75.922a35.927,35.927,0,1,0,35.927,35.927A35.969,35.969,0,0,0,185.652,142.783Z" transform="translate(-145.657 -138.716)" fill="#21365f"/>
    </g>
    <g id="Group_2946" data-name="Group 2946" transform="translate(65.119 10.843)">
      <path id="Path_7855" data-name="Path 7855" d="M277.172,97.023a2.034,2.034,0,0,1-2.034-2.033V76.009a2.034,2.034,0,1,1,4.067,0V94.989A2.034,2.034,0,0,1,277.172,97.023Z" transform="translate(-275.138 -73.975)" fill="#21365f"/>
    </g>
    <g id="Group_2947" data-name="Group 2947" transform="translate(8.132 67.828)">
      <path id="Path_7856" data-name="Path 7856" d="M101.931,272.264H82.95a2.034,2.034,0,0,1,0-4.067h18.981a2.034,2.034,0,0,1,0,4.067Z" transform="translate(-80.917 -268.197)" fill="#21365f"/>
    </g>
    <g id="Group_2948" data-name="Group 2948" transform="translate(98.023 39.339)">
      <path id="Path_7857" data-name="Path 7857" d="M389.306,184.64a2.034,2.034,0,0,1-1.02-3.795l16.439-9.49a2.033,2.033,0,0,1,2.033,3.522l-16.438,9.49A2.019,2.019,0,0,1,389.306,184.64Z" transform="translate(-387.27 -171.081)" fill="#21365f"/>
    </g>
    <g id="Group_2949" data-name="Group 2949" transform="translate(15.761 86.822)">
      <path id="Path_7858" data-name="Path 7858" d="M108.974,346.493a2.033,2.033,0,0,1-1.019-3.794l16.436-9.491a2.033,2.033,0,0,1,2.033,3.522l-16.436,9.491A2.024,2.024,0,0,1,108.974,346.493Z" transform="translate(-106.938 -332.935)" fill="#21365f"/>
    </g>
    <g id="Group_2950" data-name="Group 2950" transform="translate(84.116 18.47)">
      <path id="Path_7859" data-name="Path 7859" d="M341.91,120.5a2.034,2.034,0,0,1-1.758-3.05l9.49-16.438a2.033,2.033,0,1,1,3.522,2.033l-9.49,16.438A2.032,2.032,0,0,1,341.91,120.5Z" transform="translate(-339.88 -99.991)" fill="#21365f"/>
    </g>
    <g id="Group_2951" data-name="Group 2951" transform="translate(36.63 100.729)">
      <path id="Path_7860" data-name="Path 7860" d="M180.059,400.833a2.034,2.034,0,0,1-1.758-3.051l9.49-16.438a2.033,2.033,0,1,1,3.522,2.034l-9.49,16.438A2.033,2.033,0,0,1,180.059,400.833Z" transform="translate(-178.028 -380.327)" fill="#21365f"/>
    </g>
    <g id="Group_2952" data-name="Group 2952" transform="translate(36.63 18.47)">
      <path id="Path_7861" data-name="Path 7861" d="M189.555,120.5a2.033,2.033,0,0,1-1.764-1.017l-9.49-16.438a2.033,2.033,0,1,1,3.522-2.033l9.49,16.438a2.034,2.034,0,0,1-1.758,3.05Z" transform="translate(-178.028 -99.991)" fill="#21365f"/>
    </g>
    <g id="Group_2953" data-name="Group 2953" transform="translate(15.761 39.339)">
      <path id="Path_7862" data-name="Path 7862" d="M125.4,184.64a2.02,2.02,0,0,1-1.014-.273l-16.436-9.49a2.033,2.033,0,0,1,2.033-3.522l16.436,9.49a2.034,2.034,0,0,1-1.019,3.795Z" transform="translate(-106.938 -171.081)" fill="#21365f"/>
    </g>
    <g id="Group_2954" data-name="Group 2954" transform="translate(55.046 49.378)">
      <path id="Path_7863" data-name="Path 7863" d="M253.01,246.24a12.131,12.131,0,0,1-11.36-7.176,2.034,2.034,0,0,1,3.749-1.578,8.182,8.182,0,0,0,7.611,4.687c4.475,0,8.116-3.225,8.116-7.189,0-3.281-1.414-7.189-8.153-7.189-8.982,0-12.183-5.815-12.183-11.256,0-6.207,5.465-11.256,12.183-11.256a12.13,12.13,0,0,1,11.359,7.176,2.034,2.034,0,1,1-3.749,1.578,8.18,8.18,0,0,0-7.61-4.687c-4.475,0-8.116,3.226-8.116,7.189,0,3.281,1.409,7.189,8.116,7.189,9.011,0,12.22,5.815,12.22,11.257C265.193,241.19,259.728,246.24,253.01,246.24Z" transform="translate(-240.79 -205.281)" fill="#21365f"/>
    </g>
    <g id="Group_2955" data-name="Group 2955" transform="translate(65.198 44.295)">
      <path id="Path_7864" data-name="Path 7864" d="M277.443,197.117a2.034,2.034,0,0,1-2.034-2.033V190.01a2.034,2.034,0,1,1,4.067,0v5.073A2.034,2.034,0,0,1,277.443,197.117Z" transform="translate(-275.409 -187.976)" fill="#21365f"/>
    </g>
    <g id="Group_2956" data-name="Group 2956" transform="translate(65.198 86.287)">
      <path id="Path_7865" data-name="Path 7865" d="M277.443,340.255a2.034,2.034,0,0,1-2.034-2.033v-5.073a2.034,2.034,0,1,1,4.067,0v5.073A2.034,2.034,0,0,1,277.443,340.255Z" transform="translate(-275.409 -331.114)" fill="#21365f"/>
    </g>
    <g id="Group_2957" data-name="Group 2957" transform="translate(85.812 67.15)">
      <circle id="Ellipse_22" data-name="Ellipse 22" cx="2.711" cy="2.711" r="2.711" fill="#21365f"/>
    </g>
    <g id="Group_2958" data-name="Group 2958" transform="translate(43.07 67.15)">
      <circle id="Ellipse_23" data-name="Ellipse 23" cx="2.711" cy="2.711" r="2.711" fill="#21365f"/>
    </g>
    <g id="Group_2959" data-name="Group 2959" transform="translate(112.022 12.877)">
      <path id="Path_7866" data-name="Path 7866" d="M487.271,141.69l19.362-19.362H495.92s2.955-41.417-61.107-41.417c0,0,41.652,11.505,43.81,41.417H467.907Z" transform="translate(-434.813 -80.912)" fill="#fff"/>
    </g>
    <g id="Group_2960" data-name="Group 2960" transform="translate(112.022 12.877)">
      <path id="Path_7867" data-name="Path 7867" d="M495.92,122.329s2.955-41.417-61.107-41.417c50.57,7.9,55.8,33.47,55.922,43.111a3.82,3.82,0,0,0,3.842,3.728h6.633l5.423-5.423Z" transform="translate(-434.813 -80.912)" fill="#bdc3d8"/>
    </g>
    <g id="Group_2961" data-name="Group 2961" transform="translate(109.985 10.843)">
      <path id="Path_7868" data-name="Path 7868" d="M482.359,138.821h0a2.031,2.031,0,0,1-1.438-.6l-19.362-19.364A2.033,2.033,0,0,1,463,115.389h8.452c-3.863-26.559-41.7-37.312-42.089-37.421a2.033,2.033,0,0,1,.541-3.993c24.326,0,42.1,5.844,52.834,17.371a38.087,38.087,0,0,1,10.3,24.043h8.685a2.033,2.033,0,0,1,1.438,3.471L483.8,138.225A2.031,2.031,0,0,1,482.359,138.821Zm-14.452-19.364,14.452,14.455,14.455-14.455h-5.807a2.035,2.035,0,0,1-2.028-2.174,33.861,33.861,0,0,0-9.281-23.23c-8.015-8.566-20.46-13.727-37.092-15.406,12.922,5.945,31.651,18.043,33.136,38.631a2.035,2.035,0,0,1-2.028,2.179Z" transform="translate(-427.867 -73.975)" fill="#21365f"/>
    </g>
    <g id="Group_2962" data-name="Group 2962" transform="translate(10.165 125.765)">
      <path id="Path_7869" data-name="Path 7869" d="M107.217,465.544,87.853,484.906H98.569s-2.955,41.417,61.107,41.417c0,0-41.652-11.505-43.81-41.417h10.713Z" transform="translate(-87.853 -465.544)" fill="#fff"/>
    </g>
    <g id="Group_2963" data-name="Group 2963" transform="translate(10.165 139.704)">
      <path id="Path_7870" data-name="Path 7870" d="M98.569,518.512s-2.955,41.417,61.107,41.417c-50.573-7.9-55.8-33.47-55.922-43.111a3.821,3.821,0,0,0-3.845-3.728H93.276l-5.423,5.423Z" transform="translate(-87.853 -513.089)" fill="#bdc3d8"/>
    </g>
    <g id="Group_2964" data-name="Group 2964" transform="translate(8.132 123.753)">
      <path id="Path_7871" data-name="Path 7871" d="M154.773,523.5c-24.327,0-42.1-5.844-52.835-17.371a38.091,38.091,0,0,1-10.3-24.043H82.95a2.033,2.033,0,0,1-1.438-3.471l19.362-19.365a2.094,2.094,0,0,1,2.876,0l19.364,19.365a2.033,2.033,0,0,1-1.438,3.471h-8.452c3.863,26.559,41.7,37.312,42.089,37.421a2.033,2.033,0,0,1-.54,3.993ZM87.859,478.021h5.807a2.035,2.035,0,0,1,2.028,2.174,33.86,33.86,0,0,0,9.281,23.23c8.015,8.566,20.461,13.727,37.092,15.406-12.922-5.944-31.651-18.043-33.136-38.631a2.035,2.035,0,0,1,2.029-2.179h5.807l-14.455-14.455Z" transform="translate(-80.916 -458.68)" fill="#21365f"/>
    </g>
    <g id="Group_2965" data-name="Group 2965" transform="translate(69.959 72.661)">
      <circle id="Ellipse_24" data-name="Ellipse 24" cx="56.941" cy="56.941" r="56.941" fill="#fff"/>
    </g>
    <g id="Group_2966" data-name="Group 2966" transform="translate(77.273 87.497)">
      <path id="Path_7872" data-name="Path 7872" d="M404.154,335.015a56.882,56.882,0,0,1-87.866,69.972,56.909,56.909,0,1,0,87.866-69.972Z" transform="translate(-316.288 -335.015)" fill="#bdc3d8"/>
    </g>
    <g id="Group_2967" data-name="Group 2967" transform="translate(67.925 70.624)">
      <path id="Path_7873" data-name="Path 7873" d="M343.38,395.414a58.975,58.975,0,1,1,58.975-58.975A59.041,59.041,0,0,1,343.38,395.414Zm0-113.883a54.908,54.908,0,1,0,54.907,54.908A54.97,54.97,0,0,0,343.38,281.531Z" transform="translate(-284.405 -277.464)" fill="#21365f"/>
    </g>
    <g id="Group_2968" data-name="Group 2968" transform="translate(106.712 138.494)">
      <path id="Path_7874" data-name="Path 7874" d="M450.719,514.733l-1.435-5.69H424.708l-1.435,5.69a11.412,11.412,0,0,1-6.424,7.637l20.156,10.74,20.137-10.74A11.411,11.411,0,0,1,450.719,514.733Z" transform="translate(-416.849 -509.043)" fill="#fff"/>
    </g>
    <g id="Group_2969" data-name="Group 2969" transform="translate(119.406 138.494)">
      <path id="Path_7875" data-name="Path 7875" d="M487.74,522.37a11.411,11.411,0,0,1-6.424-7.637l-1.435-5.69H469.332L466.9,518.7a19.371,19.371,0,0,1-6.758,10.428l7.465,3.977Z" transform="translate(-460.138 -509.043)" fill="#bdc3d8"/>
    </g>
    <g id="Group_2970" data-name="Group 2970" transform="translate(104.678 136.458)">
      <path id="Path_7876" data-name="Path 7876" d="M432.1,530.231a2.037,2.037,0,0,1-.956-.238l-20.156-10.738a2.032,2.032,0,0,1,.127-3.651,9.332,9.332,0,0,0,5.277-6.278l1.438-5.693A2.036,2.036,0,0,1,419.8,502.1h24.576a2.034,2.034,0,0,1,1.973,1.536l1.435,5.693a9.334,9.334,0,0,0,5.278,6.278,2.032,2.032,0,0,1,.127,3.651l-20.135,10.738A2.036,2.036,0,0,1,432.1,530.231Zm-16.115-12.922,16.115,8.584,16.1-8.584a13.386,13.386,0,0,1-4.356-6.988h0l-1.046-4.157H421.386l-1.049,4.157A13.412,13.412,0,0,1,415.984,517.309Z" transform="translate(-409.909 -502.097)" fill="#21365f"/>
    </g>
    <g id="Group_2971" data-name="Group 2971" transform="translate(102.527 87.887)">
      <path id="Path_7877" data-name="Path 7877" d="M451.233,361.51c0,16.367-10.894,29.636-24.332,29.636s-24.332-13.269-24.332-29.636,10.894-25,24.332-25S451.233,345.144,451.233,361.51Z" transform="translate(-402.569 -336.506)" fill="#fff"/>
    </g>
    <g id="Group_2972" data-name="Group 2972" transform="translate(104.381 87.884)">
      <path id="Path_7878" data-name="Path 7878" d="M450.279,369.645a34.646,34.646,0,0,1-3,14.259A32.551,32.551,0,0,0,455.7,361.51c0-16.367-10.894-25-24.332-25-10.139,0-18.824,4.925-22.478,14.373,4.39-4.118,10.409-6.238,17.055-6.238C439.386,344.641,450.279,353.278,450.279,369.645Z" transform="translate(-408.892 -336.506)" fill="#bdc3d8"/>
    </g>
    <g id="Group_2973" data-name="Group 2973" transform="translate(100.494 85.854)">
      <path id="Path_7879" data-name="Path 7879" d="M422,388.277c-14.537,0-26.365-14.206-26.365-31.669,0-16.174,10.594-27.038,26.365-27.038s26.366,10.864,26.366,27.038C448.364,374.071,436.536,388.277,422,388.277Zm0-54.64c-13.547,0-22.3,9.016-22.3,22.971,0,15.22,10,27.6,22.3,27.6s22.3-12.382,22.3-27.6C444.3,342.653,435.545,333.637,422,333.637Z" transform="translate(-395.633 -329.57)" fill="#21365f"/>
    </g>
    <g id="Group_2974" data-name="Group 2974" transform="translate(102.527 103.722)">
      <path id="Path_7880" data-name="Path 7880" d="M426.872,393.13a39.357,39.357,0,0,0-23.275-1.549,31,31,0,0,0-1.028,8.095c0,16.367,10.894,29.636,24.332,29.636s24.332-13.269,24.332-29.636a32.46,32.46,0,0,0-.511-5.849C445.061,395.294,436.055,396.509,426.872,393.13Z" transform="translate(-402.569 -390.502)" fill="#fff"/>
    </g>
    <g id="Group_2975" data-name="Group 2975" transform="translate(112.244 107.048)">
      <path id="Path_7881" data-name="Path 7881" d="M474.145,401.842a45.489,45.489,0,0,1-10.931,1.462c-.567,15.755-11.2,28.328-24.279,28.328a20.09,20.09,0,0,1-3.228-.291,21.535,21.535,0,0,0,14.617,5.987c13.438,0,24.332-13.269,24.332-29.636A32.462,32.462,0,0,0,474.145,401.842Z" transform="translate(-435.707 -401.842)" fill="#bdc3d8"/>
    </g>
    <g id="Group_2976" data-name="Group 2976" transform="translate(100.494 101.68)">
      <path id="Path_7882" data-name="Path 7882" d="M422,426.421c-14.537,0-26.365-14.206-26.365-31.669a33.045,33.045,0,0,1,1.1-8.627,2.031,2.031,0,0,1,1.464-1.44,41.258,41.258,0,0,1,24.475,1.61h0c8.569,3.156,17.039,2.089,22.637.641a2.032,2.032,0,0,1,2.51,1.6,34.483,34.483,0,0,1,.546,6.214C448.364,412.215,436.536,426.421,422,426.421ZM400.37,388.354a29.685,29.685,0,0,0-.67,6.4c0,15.22,10,27.6,22.3,27.6s22.3-12.382,22.3-27.6a31.788,31.788,0,0,0-.175-3.363,41.524,41.524,0,0,1-22.854-1.276h0A37.462,37.462,0,0,0,400.37,388.354Z" transform="translate(-395.633 -383.535)" fill="#21365f"/>
    </g>
    <g id="Group_2977" data-name="Group 2977" transform="translate(126.911 151.845)">
      <path id="Path_7883" data-name="Path 7883" d="M532.972,563.821a17.032,17.032,0,0,0-10.309-6.04l-14.219-2.457a11.276,11.276,0,0,1-2.706-.823L485.6,565.24V589.2A56.872,56.872,0,0,0,532.972,563.821Z" transform="translate(-485.6 -554.5)" fill="#fff"/>
    </g>
    <g id="Group_2978" data-name="Group 2978" transform="translate(141.149 155.806)">
      <path id="Path_7884" data-name="Path 7884" d="M567.3,573.37a17.1,17.1,0,0,0-7.775-5.359l-22.346,11.916a5.7,5.7,0,0,0-3.014,5.026v11.992A57.043,57.043,0,0,0,567.3,573.37Z" transform="translate(-534.164 -568.011)" fill="#bdc3d8"/>
    </g>
    <g id="Group_2979" data-name="Group 2979" transform="translate(124.878 149.811)">
      <path id="Path_7885" data-name="Path 7885" d="M480.7,586.327a2.034,2.034,0,0,1-2.033-2.034V560.335a2.033,2.033,0,0,1,1.077-1.8L499.877,547.8a2.038,2.038,0,0,1,1.787-.061,9.23,9.23,0,0,0,2.224.675l14.219,2.455a19.114,19.114,0,0,1,11.537,6.76,2.036,2.036,0,0,1,.117,2.415A58.906,58.906,0,0,1,480.7,586.327Zm2.034-24.771v20.667a54.823,54.823,0,0,0,42.753-23.138,15.014,15.014,0,0,0-8.071-4.2l-14.22-2.455a13.737,13.737,0,0,1-2.24-.588Z" transform="translate(-478.664 -547.564)" fill="#21365f"/>
    </g>
    <g id="Group_2980" data-name="Group 2980" transform="translate(79.457 151.845)">
      <path id="Path_7886" data-name="Path 7886" d="M351.19,554.5a11.307,11.307,0,0,1-2.706.823l-14.219,2.457a17.03,17.03,0,0,0-10.309,6.04A56.871,56.871,0,0,0,371.335,589.2c.006,0,.008,0,.011,0V565.24Z" transform="translate(-323.956 -554.5)" fill="#fff"/>
    </g>
    <g id="Group_2981" data-name="Group 2981" transform="translate(88.925 167.216)">
      <path id="Path_7887" data-name="Path 7887" d="M394.163,626.254V614.065l-14.829-6.432a8.539,8.539,0,0,0-4.851-.58l-11.706,2.021a16.809,16.809,0,0,0-6.541,2.682,56.676,56.676,0,0,0,37.927,14.5Z" transform="translate(-356.236 -606.929)" fill="#bdc3d8"/>
    </g>
    <g id="Group_2982" data-name="Group 2982" transform="translate(77.424 149.811)">
      <path id="Path_7888" data-name="Path 7888" d="M366.444,586.327a58.906,58.906,0,0,1-49.082-26.281,2.037,2.037,0,0,1,.117-2.415,19.114,19.114,0,0,1,11.537-6.76l14.22-2.455a9.244,9.244,0,0,0,2.222-.675,2.039,2.039,0,0,1,1.787.061L367.4,558.539a2.033,2.033,0,0,1,1.078,1.8v23.958A2.034,2.034,0,0,1,366.444,586.327Zm-44.806-27.242a54.826,54.826,0,0,0,42.772,23.138V561.555l-18.245-9.718a13.707,13.707,0,0,1-2.238.588l-14.219,2.455A15,15,0,0,0,321.638,559.085Z" transform="translate(-317.02 -547.564)" fill="#21365f"/>
    </g>
    <g id="Group_2983" data-name="Group 2983" transform="translate(10.168 12.88)">
      <circle id="Ellipse_25" data-name="Ellipse 25" cx="5.423" cy="5.423" r="5.423" fill="#fff"/>
    </g>
    <g id="Group_2984" data-name="Group 2984" transform="translate(8.134 10.846)">
      <path id="Path_7889" data-name="Path 7889" d="M88.383,88.9a7.457,7.457,0,1,1,7.456-7.457A7.464,7.464,0,0,1,88.383,88.9Zm0-10.846a3.389,3.389,0,1,0,3.389,3.389A3.392,3.392,0,0,0,88.383,78.052Z" transform="translate(-80.926 -73.985)" fill="#21365f"/>
    </g>
    <g id="Group_2985" data-name="Group 2985" transform="translate(156.724 2.034)">
      <circle id="Ellipse_26" data-name="Ellipse 26" cx="5.423" cy="5.423" r="5.423" fill="#fff"/>
    </g>
    <g id="Group_2986" data-name="Group 2986" transform="translate(154.688 0)">
      <path id="Path_7890" data-name="Path 7890" d="M587.8,51.9a7.457,7.457,0,1,1,7.456-7.457A7.465,7.465,0,0,1,587.8,51.9Zm0-10.846a3.389,3.389,0,1,0,3.389,3.389A3.393,3.393,0,0,0,587.8,41.057Z" transform="translate(-580.344 -36.99)" fill="#21365f"/>
    </g>
    <g id="Group_2987" data-name="Group 2987" transform="translate(183.842 29.151)">
      <circle id="Ellipse_27" data-name="Ellipse 27" cx="5.423" cy="5.423" r="5.423" fill="#fff"/>
    </g>
    <g id="Group_2988" data-name="Group 2988" transform="translate(181.805 27.118)">
      <path id="Path_7891" data-name="Path 7891" d="M680.3,144.4a7.457,7.457,0,1,1,7.457-7.457A7.464,7.464,0,0,1,680.3,144.4Zm0-10.846a3.389,3.389,0,1,0,3.39,3.389A3.392,3.392,0,0,0,680.3,133.553Z" transform="translate(-672.84 -129.486)" fill="#21365f"/>
    </g>
    <g id="Group_2989" data-name="Group 2989" transform="translate(2.034 167.558)">
      <circle id="Ellipse_28" data-name="Ellipse 28" cx="5.423" cy="5.423" r="5.423" transform="translate(0 0)" fill="#fff"/>
    </g>
    <g id="Group_2990" data-name="Group 2990" transform="translate(0 165.524)">
      <path id="Path_7892" data-name="Path 7892" d="M60.637,616.071a7.457,7.457,0,1,1,7.456-7.457A7.464,7.464,0,0,1,60.637,616.071Zm0-10.846a3.389,3.389,0,1,0,3.389,3.389A3.392,3.392,0,0,0,60.637,605.225Z" transform="translate(-53.18 -601.158)" fill="#21365f"/>
    </g>
    <g id="Group_2991" data-name="Group 2991" transform="translate(23.728 183.829)">
      <circle id="Ellipse_29" data-name="Ellipse 29" cx="5.423" cy="5.423" r="5.423" transform="translate(0 0)" fill="#fff"/>
    </g>
    <g id="Group_2992" data-name="Group 2992" transform="translate(21.694 181.793)">
      <path id="Path_7893" data-name="Path 7893" d="M134.634,671.563a7.457,7.457,0,1,1,7.457-7.457A7.464,7.464,0,0,1,134.634,671.563Zm0-10.846a3.389,3.389,0,1,0,3.389,3.389A3.393,3.393,0,0,0,134.634,660.717Z" transform="translate(-127.177 -656.65)" fill="#21365f"/>
    </g>
    <g id="Group_2993" data-name="Group 2993" transform="translate(183.842 167.558)">
      <circle id="Ellipse_30" data-name="Ellipse 30" cx="5.423" cy="5.423" r="5.423" transform="translate(0 0)" fill="#fff"/>
    </g>
    <g id="Group_2994" data-name="Group 2994" transform="translate(181.805 165.524)">
      <path id="Path_7894" data-name="Path 7894" d="M680.3,616.071a7.457,7.457,0,1,1,7.457-7.457A7.464,7.464,0,0,1,680.3,616.071Zm0-10.846a3.389,3.389,0,1,0,3.39,3.389A3.392,3.392,0,0,0,680.3,605.225Z" transform="translate(-672.84 -601.158)" fill="#21365f"/>
    </g>
  </g>
</svg>
