<svg id="Group_3205" data-name="Group 3205" xmlns="http://www.w3.org/2000/svg" width="211.364" height="186.022" viewBox="0 0 211.364 186.022">
  <g id="Group_3063" data-name="Group 3063" transform="translate(137.568 28.327)">
    <circle id="Ellipse_43" data-name="Ellipse 43" cx="36.898" cy="36.898" r="36.898" transform="translate(0 0)" fill="#e8ebec"/>
  </g>
  <g id="Group_3064" data-name="Group 3064" transform="translate(105.283 122.769)">
    <circle id="Ellipse_44" data-name="Ellipse 44" cx="31.627" cy="31.627" r="31.627" transform="translate(0 0)" fill="#e8ebec"/>
  </g>
  <g id="Group_3065" data-name="Group 3065" transform="translate(0 4.602)">
    <circle id="Ellipse_45" data-name="Ellipse 45" cx="52.711" cy="52.711" r="52.711" transform="translate(0)" fill="#e8ebec"/>
  </g>
  <g id="Group_3066" data-name="Group 3066" transform="translate(25.711 1.977)">
    <path id="Path_7943" data-name="Path 7943" d="M265.989,102.869H97.314l84.338-47.43Z" transform="translate(-97.314 -55.439)" fill="#fff"/>
  </g>
  <g id="Group_3067" data-name="Group 3067" transform="translate(110.049 1.977)">
    <path id="Path_7944" data-name="Path 7944" d="M500.865,102.869H437.622l-21.095-47.43Z" transform="translate(-416.527 -55.439)" fill="#bdc3d8"/>
  </g>
  <g id="Group_3068" data-name="Group 3068" transform="translate(25.711 154.839)">
    <path id="Path_7945" data-name="Path 7945" d="M265.989,649.827H97.314V639.284a5.272,5.272,0,0,1,5.271-5.271H260.718a5.273,5.273,0,0,1,5.271,5.271Z" transform="translate(-97.314 -634.013)" fill="#fff"/>
  </g>
  <g id="Group_3069" data-name="Group 3069" transform="translate(38.889 139.025)">
    <path id="Path_7946" data-name="Path 7946" d="M289.511,589.974H147.191V579.432a5.269,5.269,0,0,1,5.271-5.271H284.24a5.27,5.27,0,0,1,5.271,5.271Z" transform="translate(-147.191 -574.161)" fill="#fff"/>
  </g>
  <g id="Group_3070" data-name="Group 3070" transform="translate(44.161 162.745)">
    <path id="Rectangle_2384" data-name="Rectangle 2384" d="M7.907,0H150.225a0,0,0,0,1,0,0V7.907a0,0,0,0,1,0,0H0a0,0,0,0,1,0,0v0A7.907,7.907,0,0,1,7.907,0Z" fill="#bdc3d8"/>
  </g>
  <g id="Group_3071" data-name="Group 3071" transform="translate(67.881 146.932)">
    <path id="Rectangle_2385" data-name="Rectangle 2385" d="M7.907,0H113.329a0,0,0,0,1,0,0V7.907a0,0,0,0,1,0,0H0a0,0,0,0,1,0,0v0A7.907,7.907,0,0,1,7.907,0Z" fill="#bdc3d8"/>
  </g>
  <g id="Group_3072" data-name="Group 3072" transform="translate(38.889 49.406)">
    <path id="Path_7947" data-name="Path 7947" d="M284.24,250.771H152.462a5.269,5.269,0,0,1-5.271-5.271V234.958h142.32V245.5A5.27,5.27,0,0,1,284.24,250.771Z" transform="translate(-147.191 -234.958)" fill="#fff"/>
  </g>
  <g id="Group_3073" data-name="Group 3073" transform="translate(59.973 57.313)">
    <path id="Rectangle_2386" data-name="Rectangle 2386" d="M7.907,0H121.235a0,0,0,0,1,0,0V0a7.907,7.907,0,0,1-7.907,7.907H0a0,0,0,0,1,0,0v0A7.907,7.907,0,0,1,7.907,0Z" transform="translate(0 0)" fill="#bdc3d8"/>
  </g>
  <g id="Group_3074" data-name="Group 3074" transform="translate(99.506 65.225)">
    <rect id="Rectangle_2387" data-name="Rectangle 2387" width="21.084" height="73.795" transform="translate(0 0)" fill="#fff"/>
  </g>
  <g id="Group_3075" data-name="Group 3075" transform="translate(146.95 65.225)">
    <rect id="Rectangle_2388" data-name="Rectangle 2388" width="21.084" height="73.795" transform="translate(0 0)" fill="#fff"/>
  </g>
  <g id="Group_3076" data-name="Group 3076" transform="translate(52.061 65.225)">
    <rect id="Rectangle_2389" data-name="Rectangle 2389" width="21.084" height="73.795" transform="translate(0 0)" fill="#fff"/>
  </g>
  <g id="Group_3077" data-name="Group 3077" transform="translate(110.049 75.767)">
    <path id="Rectangle_2390" data-name="Rectangle 2390" d="M10.542,0h0a0,0,0,0,1,0,0V63.253a0,0,0,0,1,0,0H0a0,0,0,0,1,0,0V10.542A10.542,10.542,0,0,1,10.542,0Z" fill="#bdc3d8"/>
  </g>
  <g id="Group_3078" data-name="Group 3078" transform="translate(157.494 75.767)">
    <path id="Path_7948" data-name="Path 7948" d="M606.646,397.984H596.1V340a5.272,5.272,0,0,1,5.271-5.271h5.271Z" transform="translate(-596.104 -334.731)" fill="#bdc3d8"/>
  </g>
  <g id="Group_3079" data-name="Group 3079" transform="translate(62.603 75.767)">
    <path id="Rectangle_2391" data-name="Rectangle 2391" d="M10.542,0h0a0,0,0,0,1,0,0V63.253a0,0,0,0,1,0,0H0a0,0,0,0,1,0,0V10.542A10.542,10.542,0,0,1,10.542,0Z" fill="#bdc3d8"/>
  </g>
  <g id="Group_3080" data-name="Group 3080" transform="translate(23.734 0.002)">
    <path id="Path_7949" data-name="Path 7949" d="M260.483,99.348H91.808a1.974,1.974,0,0,1-.969-3.7l84.338-47.43a1.971,1.971,0,0,1,1.938,0l84.338,47.43a1.974,1.974,0,0,1-.969,3.7ZM99.355,95.394h153.58l-76.79-43.183Z" transform="translate(-89.831 -47.967)" fill="#21365f"/>
  </g>
  <g id="Group_3081" data-name="Group 3081" transform="translate(77.243 17.78)">
    <path id="Path_7950" data-name="Path 7950" d="M357.97,133.7H292.36l32.806-18.449Z" transform="translate(-292.36 -115.253)" fill="#fff"/>
  </g>
  <g id="Group_3082" data-name="Group 3082" transform="translate(110.049 17.78)">
    <path id="Path_7951" data-name="Path 7951" d="M449.331,133.7H423.259l-6.731-18.449Z" transform="translate(-416.527 -115.253)" fill="#bdc3d8"/>
  </g>
  <g id="Group_3083" data-name="Group 3083" transform="translate(75.266 15.8)">
    <path id="Path_7952" data-name="Path 7952" d="M352.464,130.166H286.854a1.978,1.978,0,0,1-.969-3.7l32.806-18.449a1.97,1.97,0,0,1,1.938,0l32.8,18.449a1.978,1.978,0,0,1-.969,3.7ZM294.4,126.213h50.514L319.66,112.006Z" transform="translate(-284.877 -107.762)" fill="#21365f"/>
  </g>
  <g id="Group_3084" data-name="Group 3084" transform="translate(23.734 152.862)">
    <path id="Path_7953" data-name="Path 7953" d="M260.485,646.3H91.81a1.977,1.977,0,0,1-1.977-1.976V633.78a7.256,7.256,0,0,1,7.248-7.248H255.214a7.257,7.257,0,0,1,7.248,7.248v10.542A1.977,1.977,0,0,1,260.485,646.3Zm-166.7-3.953H258.508V633.78a3.3,3.3,0,0,0-3.294-3.294H97.081a3.3,3.3,0,0,0-3.294,3.294Z" transform="translate(-89.833 -626.532)" fill="#21365f"/>
  </g>
  <g id="Group_3085" data-name="Group 3085" transform="translate(36.912 137.049)">
    <path id="Path_7954" data-name="Path 7954" d="M284.006,586.446H141.687a1.977,1.977,0,0,1-1.976-1.977V573.927a7.253,7.253,0,0,1,7.248-7.248H278.735a7.254,7.254,0,0,1,7.248,7.248v10.542A1.977,1.977,0,0,1,284.006,586.446Zm-140.343-3.953H282.03v-8.565a3.3,3.3,0,0,0-3.294-3.295H146.958a3.3,3.3,0,0,0-3.294,3.295Z" transform="translate(-139.71 -566.679)" fill="#21365f"/>
  </g>
  <g id="Group_3086" data-name="Group 3086" transform="translate(36.912 47.43)">
    <path id="Path_7955" data-name="Path 7955" d="M278.735,247.243H146.958a7.253,7.253,0,0,1-7.248-7.248V229.453a1.977,1.977,0,0,1,1.976-1.977h142.32a1.977,1.977,0,0,1,1.977,1.977v10.542A7.254,7.254,0,0,1,278.735,247.243ZM143.663,231.429v8.566a3.3,3.3,0,0,0,3.294,3.295H278.735a3.3,3.3,0,0,0,3.294-3.295v-8.566Z" transform="translate(-139.71 -227.476)" fill="#21365f"/>
  </g>
  <g id="Group_3087" data-name="Group 3087" transform="translate(97.53 63.248)">
    <path id="Path_7956" data-name="Path 7956" d="M392.205,365.1H371.121a1.977,1.977,0,0,1-1.977-1.977v-73.8a1.977,1.977,0,0,1,1.977-1.977h21.084a1.977,1.977,0,0,1,1.977,1.977v73.8A1.977,1.977,0,0,1,392.205,365.1ZM373.1,361.143h17.131V291.3H373.1Z" transform="translate(-369.144 -287.348)" fill="#21365f"/>
  </g>
  <g id="Group_3088" data-name="Group 3088" transform="translate(144.973 63.248)">
    <path id="Path_7957" data-name="Path 7957" d="M571.776,365.1H550.692a1.977,1.977,0,0,1-1.977-1.977v-73.8a1.977,1.977,0,0,1,1.977-1.977h21.084a1.977,1.977,0,0,1,1.977,1.977v73.8A1.977,1.977,0,0,1,571.776,365.1Zm-19.108-3.953H569.8V291.3H552.669Z" transform="translate(-548.715 -287.348)" fill="#21365f"/>
  </g>
  <g id="Group_3089" data-name="Group 3089" transform="translate(50.085 63.248)">
    <path id="Path_7958" data-name="Path 7958" d="M212.628,365.1H191.544a1.977,1.977,0,0,1-1.977-1.977v-73.8a1.977,1.977,0,0,1,1.977-1.977h21.085a1.977,1.977,0,0,1,1.977,1.977v73.8A1.977,1.977,0,0,1,212.628,365.1Zm-19.108-3.953h17.131V291.3H193.52Z" transform="translate(-189.567 -287.348)" fill="#21365f"/>
  </g>
  <g id="Group_3090" data-name="Group 3090" transform="translate(181.867 78.408)">
    <path id="Path_7959" data-name="Path 7959" d="M700.876,348.679H690.334a1.977,1.977,0,1,1,0-3.953h10.542a1.977,1.977,0,1,1,0,3.953Z" transform="translate(-688.357 -344.726)" fill="#21365f"/>
  </g>
  <g id="Group_3091" data-name="Group 3091" transform="translate(187.138 73.136)">
    <path id="Path_7960" data-name="Path 7960" d="M710.285,339.271a1.977,1.977,0,0,1-1.977-1.977V326.752a1.977,1.977,0,1,1,3.953,0v10.542A1.977,1.977,0,0,1,710.285,339.271Z" transform="translate(-708.308 -324.775)" fill="#21365f"/>
  </g>
  <g id="Group_3092" data-name="Group 3092" transform="translate(142.33 5.271)">
    <path id="Path_7961" data-name="Path 7961" d="M551.23,71.862H540.688a1.977,1.977,0,1,1,0-3.953H551.23a1.977,1.977,0,1,1,0,3.953Z" transform="translate(-538.711 -67.909)" fill="#21365f"/>
  </g>
  <g id="Group_3093" data-name="Group 3093" transform="translate(147.601 0)">
    <path id="Path_7962" data-name="Path 7962" d="M560.639,62.454a1.977,1.977,0,0,1-1.977-1.977V49.935a1.977,1.977,0,0,1,3.953,0V60.477A1.977,1.977,0,0,1,560.639,62.454Z" transform="translate(-558.662 -47.958)" fill="#21365f"/>
  </g>
  <g id="Group_3094" data-name="Group 3094" transform="translate(28.99 91.59)">
    <path id="Path_7963" data-name="Path 7963" d="M122.244,398.575H111.7a1.977,1.977,0,0,1,0-3.953h10.542a1.977,1.977,0,0,1,0,3.953Z" transform="translate(-109.725 -394.622)" fill="#21365f"/>
  </g>
  <g id="Group_3095" data-name="Group 3095" transform="translate(34.261 86.319)">
    <path id="Path_7964" data-name="Path 7964" d="M131.652,389.167a1.977,1.977,0,0,1-1.977-1.977V376.648a1.977,1.977,0,1,1,3.953,0V387.19A1.977,1.977,0,0,1,131.652,389.167Z" transform="translate(-129.675 -374.671)" fill="#21365f"/>
  </g>
  <g id="Group_3096" data-name="Group 3096" transform="translate(47.44 15.149)">
    <path id="Path_7965" data-name="Path 7965" d="M192.076,109.25H181.534a1.977,1.977,0,0,1,0-3.954h10.542a1.977,1.977,0,0,1,0,3.954Z" transform="translate(-179.557 -105.296)" fill="#21365f"/>
  </g>
  <g id="Group_3097" data-name="Group 3097" transform="translate(52.711 9.878)">
    <path id="Path_7966" data-name="Path 7966" d="M201.485,99.841a1.977,1.977,0,0,1-1.977-1.977V87.323a1.977,1.977,0,0,1,3.953,0V97.865A1.977,1.977,0,0,1,201.485,99.841Z" transform="translate(-199.508 -85.346)" fill="#21365f"/>
  </g>
  <g id="Group_3098" data-name="Group 3098" transform="translate(176.595 115.31)">
    <path id="Path_7967" data-name="Path 7967" d="M680.92,488.354H670.378a1.977,1.977,0,1,1,0-3.953H680.92a1.977,1.977,0,0,1,0,3.953Z" transform="translate(-668.401 -484.401)" fill="#21365f"/>
  </g>
  <g id="Group_3099" data-name="Group 3099" transform="translate(181.866 110.039)">
    <path id="Path_7968" data-name="Path 7968" d="M690.329,478.946a1.977,1.977,0,0,1-1.977-1.977V466.427a1.977,1.977,0,1,1,3.953,0v10.542A1.977,1.977,0,0,1,690.329,478.946Z" transform="translate(-688.352 -464.45)" fill="#21365f"/>
  </g>
</svg>
