<svg id="Group_3172" data-name="Group 3172" xmlns="http://www.w3.org/2000/svg" width="235.458" height="241.584" viewBox="0 0 235.458 241.584">
  <g id="Group_2997" data-name="Group 2997" transform="translate(150.112 99.081)">
    <ellipse id="Ellipse_31" data-name="Ellipse 31" cx="42.673" cy="42.673" rx="42.673" ry="42.673" transform="translate(0)" fill="#e8ebec"/>
  </g>
  <g id="Group_2998" data-name="Group 2998" transform="translate(79.631 0)">
    <ellipse id="Ellipse_32" data-name="Ellipse 32" cx="36.577" cy="36.577" rx="36.577" ry="36.577" transform="translate(0 0)" fill="#e8ebec"/>
  </g>
  <g id="Group_2999" data-name="Group 2999" transform="translate(0 119.661)">
    <ellipse id="Ellipse_33" data-name="Ellipse 33" cx="60.962" cy="60.962" rx="60.962" ry="60.962" transform="translate(0)" fill="#e8ebec"/>
  </g>
  <g id="Group_3000" data-name="Group 3000" transform="translate(58.673 22.861)">
    <path id="Path_7895" data-name="Path 7895" d="M216.628,270.779H326.359a12.191,12.191,0,0,0,12.192-12.192V87.894A12.191,12.191,0,0,0,326.359,75.7H216.628a12.193,12.193,0,0,0-12.192,12.192V258.587A12.193,12.193,0,0,0,216.628,270.779Z" transform="translate(-204.436 -75.702)" fill="#fff"/>
  </g>
  <g id="Group_3001" data-name="Group 3001" transform="translate(76.964 36.577)">
    <path id="Rectangle_2380" data-name="Rectangle 2380" d="M20.187,0h95.64a0,0,0,0,1,0,0V140.986a40.375,40.375,0,0,1-40.375,40.375H0a0,0,0,0,1,0,0V20.187A20.187,20.187,0,0,1,20.187,0Z" fill="#bdc3d8"/>
  </g>
  <g id="Group_3002" data-name="Group 3002" transform="translate(56.39 20.575)">
    <path id="Path_7896" data-name="Path 7896" d="M321.085,267.781H211.354A14.5,14.5,0,0,1,196.876,253.3V82.61a14.5,14.5,0,0,1,14.478-14.478H321.085A14.5,14.5,0,0,1,335.564,82.61V253.3A14.5,14.5,0,0,1,321.085,267.781ZM211.354,72.7a9.92,9.92,0,0,0-9.906,9.906V253.3a9.916,9.916,0,0,0,9.906,9.906H321.085a9.916,9.916,0,0,0,9.907-9.906V82.61a9.92,9.92,0,0,0-9.907-9.906Z" transform="translate(-196.876 -68.132)" fill="#21365f"/>
  </g>
  <g id="Group_3003" data-name="Group 3003" transform="translate(58.673 50.293)">
    <path id="Path_7897" data-name="Path 7897" d="M210.532,306.757H332.455a6.1,6.1,0,0,0,6.1-6.1V172.641a6.093,6.093,0,0,0-6.1-6.1H210.532a6.1,6.1,0,0,0-6.1,6.1v128.02A6.1,6.1,0,0,0,210.532,306.757Z" transform="translate(-204.436 -166.545)" fill="#fff"/>
  </g>
  <g id="Group_3004" data-name="Group 3004" transform="translate(101.349 117.357)">
    <path id="Path_7898" data-name="Path 7898" d="M345.757,461.779H431.1a6.1,6.1,0,0,0,6.1-6.1V388.625H364.046a18.287,18.287,0,0,0-18.288,18.289Z" transform="translate(-345.757 -388.625)" fill="#bdc3d8"/>
  </g>
  <g id="Group_3005" data-name="Group 3005" transform="translate(56.39 48.007)">
    <path id="Path_7899" data-name="Path 7899" d="M327.181,303.759H205.258a8.389,8.389,0,0,1-8.382-8.382V167.357a8.392,8.392,0,0,1,8.382-8.382H327.181a8.393,8.393,0,0,1,8.382,8.382v128.02A8.389,8.389,0,0,1,327.181,303.759ZM205.258,163.547a3.814,3.814,0,0,0-3.81,3.81v128.02a3.814,3.814,0,0,0,3.81,3.81H327.181a3.814,3.814,0,0,0,3.81-3.81V167.357a3.814,3.814,0,0,0-3.81-3.81Z" transform="translate(-196.876 -158.975)" fill="#21365f"/>
  </g>
  <g id="Group_3006" data-name="Group 3006" transform="translate(22.092 68.582)">
    <path id="Path_7900" data-name="Path 7900" d="M101.591,330.742h67.058a18.287,18.287,0,0,0,18.289-18.288V245.4a18.288,18.288,0,0,0-18.289-18.288H101.591A18.288,18.288,0,0,0,83.3,245.4v67.058A18.287,18.287,0,0,0,101.591,330.742Z" transform="translate(-83.302 -227.107)" fill="#fff"/>
  </g>
  <g id="Group_3007" data-name="Group 3007" transform="translate(49.525 89.918)">
    <path id="Path_7901" data-name="Path 7901" d="M174.145,380.06h57.914a18.291,18.291,0,0,0,18.289-18.289v-64.01H210.722a36.577,36.577,0,0,0-36.577,36.577Z" transform="translate(-174.145 -297.762)" fill="#bdc3d8"/>
  </g>
  <g id="Group_3008" data-name="Group 3008" transform="translate(19.806 66.296)">
    <path id="Path_7902" data-name="Path 7902" d="M163.364,327.743H96.307a20.6,20.6,0,0,1-20.575-20.575V240.111a20.6,20.6,0,0,1,20.575-20.575h67.058a20.6,20.6,0,0,1,20.575,20.575v67.058A20.6,20.6,0,0,1,163.364,327.743ZM96.307,224.108a16.022,16.022,0,0,0-16,16v67.058a16.022,16.022,0,0,0,16,16h67.058a16.022,16.022,0,0,0,16-16V240.111a16.022,16.022,0,0,0-16-16Z" transform="translate(-75.732 -219.536)" fill="#21365f"/>
  </g>
  <g id="Group_3009" data-name="Group 3009" transform="translate(61.717 120.399)">
    <path id="Path_7903" data-name="Path 7903" d="M214.519,429.179H245a12.193,12.193,0,0,0,12.192-12.192V398.7H245a30.485,30.485,0,0,0-30.481,30.481Z" transform="translate(-214.519 -398.698)" fill="#bdc3d8"/>
  </g>
  <g id="Group_3010" data-name="Group 3010" transform="translate(140.968 108.207)">
    <rect id="Rectangle_2381" data-name="Rectangle 2381" width="24.385" height="24.385" rx="12.192" fill="#fff"/>
  </g>
  <g id="Group_3011" data-name="Group 3011" transform="translate(140.968 147.838)">
    <rect id="Rectangle_2382" data-name="Rectangle 2382" width="24.385" height="24.385" rx="12.192" fill="#fff"/>
  </g>
  <g id="Group_3012" data-name="Group 3012" transform="translate(140.968 68.582)">
    <rect id="Rectangle_2383" data-name="Rectangle 2383" width="24.385" height="24.385" rx="12.192" fill="#fff"/>
  </g>
  <g id="Group_3013" data-name="Group 3013" transform="translate(150.115 117.351)">
    <path id="Path_7904" data-name="Path 7904" d="M507.245,403.845h7.617a7.62,7.62,0,0,0,7.62-7.62v-7.62h-9.141a6.1,6.1,0,0,0-6.1,6.1Z" transform="translate(-507.245 -388.605)" fill="#bdc3d8"/>
  </g>
  <g id="Group_3014" data-name="Group 3014" transform="translate(150.115 156.982)">
    <path id="Path_7905" data-name="Path 7905" d="M507.245,535.082h7.617a7.62,7.62,0,0,0,7.62-7.62v-7.62h-9.141a6.1,6.1,0,0,0-6.1,6.1Z" transform="translate(-507.245 -519.842)" fill="#bdc3d8"/>
  </g>
  <g id="Group_3015" data-name="Group 3015" transform="translate(150.115 77.726)">
    <path id="Path_7906" data-name="Path 7906" d="M507.245,272.628h7.617a7.62,7.62,0,0,0,7.62-7.62v-7.62h-9.141a6.1,6.1,0,0,0-6.1,6.1Z" transform="translate(-507.245 -257.388)" fill="#bdc3d8"/>
  </g>
  <g id="Group_3016" data-name="Group 3016" transform="translate(138.685 105.921)">
    <path id="Path_7907" data-name="Path 7907" d="M488.444,379.711H479.3a9.915,9.915,0,0,1-9.906-9.906V360.66a9.919,9.919,0,0,1,9.906-9.906h9.144a9.919,9.919,0,0,1,9.906,9.906V369.8A9.916,9.916,0,0,1,488.444,379.711ZM479.3,355.326a5.341,5.341,0,0,0-5.334,5.334V369.8a5.341,5.341,0,0,0,5.334,5.334h9.144a5.341,5.341,0,0,0,5.334-5.334V360.66a5.341,5.341,0,0,0-5.334-5.334Z" transform="translate(-469.394 -350.754)" fill="#21365f"/>
  </g>
  <g id="Group_3017" data-name="Group 3017" transform="translate(138.685 145.552)">
    <path id="Path_7908" data-name="Path 7908" d="M488.444,510.948H479.3a9.92,9.92,0,0,1-9.906-9.906V491.9a9.915,9.915,0,0,1,9.906-9.906h9.144a9.915,9.915,0,0,1,9.906,9.906v9.144A9.92,9.92,0,0,1,488.444,510.948ZM479.3,486.563a5.341,5.341,0,0,0-5.334,5.334v9.144a5.341,5.341,0,0,0,5.334,5.334h9.144a5.341,5.341,0,0,0,5.334-5.334V491.9a5.341,5.341,0,0,0-5.334-5.334Z" transform="translate(-469.394 -481.991)" fill="#21365f"/>
  </g>
  <g id="Group_3018" data-name="Group 3018" transform="translate(138.685 66.296)">
    <path id="Path_7909" data-name="Path 7909" d="M488.444,248.493H479.3a9.915,9.915,0,0,1-9.906-9.906v-9.144a9.92,9.92,0,0,1,9.906-9.906h9.144a9.92,9.92,0,0,1,9.906,9.906v9.144A9.916,9.916,0,0,1,488.444,248.493ZM479.3,224.108a5.341,5.341,0,0,0-5.334,5.334v9.144a5.341,5.341,0,0,0,5.334,5.334h9.144a5.341,5.341,0,0,0,5.334-5.334v-9.144a5.341,5.341,0,0,0-5.334-5.334Z" transform="translate(-469.394 -219.536)" fill="#21365f"/>
  </g>
  <g id="Group_3019" data-name="Group 3019" transform="translate(109.942 34.291)">
    <path id="Path_7910" data-name="Path 7910" d="M406.981,118.125H376.5a2.286,2.286,0,0,1,0-4.572h30.481a2.286,2.286,0,1,1,0,4.572Z" transform="translate(-374.214 -113.553)" fill="#21365f"/>
  </g>
  <g id="Group_3020" data-name="Group 3020" transform="translate(119.086 201.935)">
    <path id="Path_7911" data-name="Path 7911" d="M418.973,673.275H406.781a2.286,2.286,0,0,1,0-4.572h12.192a2.286,2.286,0,1,1,0,4.572Z" transform="translate(-404.495 -668.703)" fill="#21365f"/>
  </g>
  <g id="Group_3021" data-name="Group 3021" transform="translate(149.57 201.935)">
    <path id="Path_7912" data-name="Path 7912" d="M519.919,673.275H507.727a2.286,2.286,0,0,1,0-4.572h12.192a2.286,2.286,0,0,1,0,4.572Z" transform="translate(-505.441 -668.703)" fill="#21365f"/>
  </g>
  <g id="Group_3022" data-name="Group 3022" transform="translate(88.602 201.935)">
    <path id="Path_7913" data-name="Path 7913" d="M318.026,673.275H305.834a2.286,2.286,0,1,1,0-4.572h12.192a2.286,2.286,0,0,1,0,4.572Z" transform="translate(-303.548 -668.703)" fill="#21365f"/>
  </g>
  <g id="Group_3023" data-name="Group 3023" transform="translate(151.856 33.529)">
    <circle id="Ellipse_34" data-name="Ellipse 34" cx="3.048" cy="3.048" r="3.048" fill="#21365f"/>
  </g>
  <g id="Group_3024" data-name="Group 3024" transform="translate(202.697 157.363)">
    <path id="Path_7914" data-name="Path 7914" d="M695.848,525.676H683.656a2.286,2.286,0,0,1,0-4.572h12.193a2.286,2.286,0,1,1,0,4.572Z" transform="translate(-681.37 -521.104)" fill="#21365f"/>
  </g>
  <g id="Group_3025" data-name="Group 3025" transform="translate(208.793 151.267)">
    <path id="Path_7915" data-name="Path 7915" d="M703.843,517.682a2.287,2.287,0,0,1-2.286-2.287V503.2a2.286,2.286,0,0,1,4.572,0V515.4A2.287,2.287,0,0,1,703.843,517.682Z" transform="translate(-701.557 -500.917)" fill="#21365f"/>
  </g>
  <g id="Group_3026" data-name="Group 3026" transform="translate(208.793 139.069)">
    <ellipse id="Ellipse_35" data-name="Ellipse 35" cx="2.286" cy="2.286" rx="2.286" ry="2.286" fill="#21365f"/>
  </g>
  <g id="Group_3027" data-name="Group 3027" transform="translate(208.793 126.876)">
    <ellipse id="Ellipse_36" data-name="Ellipse 36" cx="2.286" cy="2.286" rx="2.286" ry="2.286" fill="#21365f"/>
  </g>
  <g id="Group_3028" data-name="Group 3028" transform="translate(208.793 111.636)">
    <ellipse id="Ellipse_37" data-name="Ellipse 37" cx="2.286" cy="2.286" rx="2.286" ry="2.286" fill="#21365f"/>
  </g>
  <g id="Group_3029" data-name="Group 3029" transform="translate(208.793 90.299)">
    <ellipse id="Ellipse_38" data-name="Ellipse 38" cx="2.286" cy="2.286" rx="2.286" ry="2.286" fill="#21365f"/>
  </g>
  <g id="Group_3030" data-name="Group 3030" transform="translate(178.31 122.507)">
    <path id="Path_7916" data-name="Path 7916" d="M602.9,443.124a2.286,2.286,0,0,1-2.286-2.286V407.964a2.286,2.286,0,1,1,4.572,0v32.874A2.286,2.286,0,0,1,602.9,443.124Z" transform="translate(-600.611 -405.678)" fill="#21365f"/>
  </g>
  <g id="Group_3031" data-name="Group 3031" transform="translate(178.31 103.563)">
    <path id="Path_7917" data-name="Path 7917" d="M602.9,354.27a2.286,2.286,0,0,1-2.286-2.286v-6.751a2.286,2.286,0,1,1,4.572,0v6.751A2.287,2.287,0,0,1,602.9,354.27Z" transform="translate(-600.611 -342.947)" fill="#21365f"/>
  </g>
  <g id="Group_3032" data-name="Group 3032" transform="translate(31.999 44.959)">
    <path id="Path_7918" data-name="Path 7918" d="M130.585,153.453H118.393a2.286,2.286,0,0,1,0-4.572h12.192a2.286,2.286,0,1,1,0,4.572Z" transform="translate(-116.107 -148.881)" fill="#21365f"/>
  </g>
  <g id="Group_3033" data-name="Group 3033" transform="translate(38.095 38.863)">
    <path id="Path_7919" data-name="Path 7919" d="M138.58,145.458a2.286,2.286,0,0,1-2.286-2.286V130.98a2.286,2.286,0,1,1,4.572,0v12.192A2.286,2.286,0,0,1,138.58,145.458Z" transform="translate(-136.294 -128.694)" fill="#21365f"/>
  </g>
  <g id="Group_3034" data-name="Group 3034" transform="translate(19.806 185.183)">
    <path id="Path_7920" data-name="Path 7920" d="M90.21,617.8H78.018a2.286,2.286,0,0,1,0-4.572H90.21a2.286,2.286,0,0,1,0,4.572Z" transform="translate(-75.732 -613.228)" fill="#21365f"/>
  </g>
  <g id="Group_3035" data-name="Group 3035" transform="translate(25.903 179.087)">
    <path id="Path_7921" data-name="Path 7921" d="M98.205,609.805a2.287,2.287,0,0,1-2.286-2.286V595.327a2.286,2.286,0,0,1,4.572,0v12.192A2.287,2.287,0,0,1,98.205,609.805Z" transform="translate(-95.919 -593.041)" fill="#21365f"/>
  </g>
  <g id="Group_3036" data-name="Group 3036" transform="translate(31.999 209.574)">
    <path id="Path_7922" data-name="Path 7922" d="M130.585,698.569H118.393a2.286,2.286,0,0,1,0-4.572h12.192a2.286,2.286,0,1,1,0,4.572Z" transform="translate(-116.107 -693.997)" fill="#21365f"/>
  </g>
  <g id="Group_3037" data-name="Group 3037" transform="translate(38.095 203.477)">
    <path id="Path_7923" data-name="Path 7923" d="M138.58,690.573a2.286,2.286,0,0,1-2.286-2.286V676.1a2.286,2.286,0,1,1,4.572,0v12.192A2.286,2.286,0,0,1,138.58,690.573Z" transform="translate(-136.294 -673.809)" fill="#21365f"/>
  </g>
  <g id="Group_3061" data-name="Group 3061" transform="translate(35.299 80.327)">
    <g id="Group_3038" data-name="Group 3038" transform="translate(1.36 1.357)">
      <ellipse id="Ellipse_39" data-name="Ellipse 39" cx="38.049" cy="38.049" rx="38.049" ry="38.049" fill="#fff"/>
    </g>
    <g id="Group_3039" data-name="Group 3039" transform="translate(9.813 9.811)">
      <path id="Path_7924" data-name="Path 7924" d="M213.015,298.491a38.031,38.031,0,0,1-53.484,53.484,38.036,38.036,0,1,0,53.484-53.484Z" transform="translate(-159.531 -298.491)" fill="#bdc3d8"/>
    </g>
    <g id="Group_3040" data-name="Group 3040">
      <path id="Path_7925" data-name="Path 7925" d="M166.443,344.818a39.408,39.408,0,1,1,39.408-39.408A39.454,39.454,0,0,1,166.443,344.818Zm0-76.1a36.69,36.69,0,1,0,36.691,36.69A36.731,36.731,0,0,0,166.443,268.719Z" transform="translate(-127.035 -266.001)" fill="#21365f"/>
    </g>
    <g id="Group_3041" data-name="Group 3041" transform="translate(14.043 14.04)">
      <circle id="Ellipse_40" data-name="Ellipse 40" cx="25.366" cy="25.366" r="25.366" fill="#fff"/>
    </g>
    <g id="Group_3042" data-name="Group 3042" transform="translate(19.068 19.065)">
      <path id="Path_7926" data-name="Path 7926" d="M225.628,329.135a25.332,25.332,0,0,1-35.45,35.45,25.343,25.343,0,1,0,35.45-35.45Z" transform="translate(-190.178 -329.135)" fill="#bdc3d8"/>
    </g>
    <g id="Group_3043" data-name="Group 3043" transform="translate(12.683 12.683)">
      <path id="Path_7927" data-name="Path 7927" d="M195.76,361.451a26.725,26.725,0,1,1,26.725-26.725A26.756,26.756,0,0,1,195.76,361.451Zm0-50.732a24.007,24.007,0,1,0,24.007,24.007A24.034,24.034,0,0,0,195.76,310.719Z" transform="translate(-169.035 -308.001)" fill="#21365f"/>
    </g>
    <g id="Group_3044" data-name="Group 3044" transform="translate(50.732 5.096)">
      <path id="Path_7928" data-name="Path 7928" d="M296.392,296.578a1.359,1.359,0,0,1-1.176-2.038l6.342-10.985a1.359,1.359,0,0,1,2.353,1.359L297.57,295.9A1.359,1.359,0,0,1,296.392,296.578Z" transform="translate(-295.034 -282.875)" fill="#21365f"/>
    </g>
    <g id="Group_3045" data-name="Group 3045" transform="translate(19.025 60.016)">
      <path id="Path_7929" data-name="Path 7929" d="M191.392,478.443a1.332,1.332,0,0,1-.679-.182,1.358,1.358,0,0,1-.5-1.856l6.342-10.985a1.359,1.359,0,0,1,2.353,1.359l-6.342,10.984A1.36,1.36,0,0,1,191.392,478.443Z" transform="translate(-190.034 -464.742)" fill="#21365f"/>
    </g>
    <g id="Group_3046" data-name="Group 3046" transform="translate(38.049)">
      <path id="Path_7930" data-name="Path 7930" d="M254.393,281.4a1.359,1.359,0,0,1-1.359-1.359V267.36a1.359,1.359,0,1,1,2.718,0v12.683A1.359,1.359,0,0,1,254.393,281.4Z" transform="translate(-253.034 -266.001)" fill="#21365f"/>
    </g>
    <g id="Group_3047" data-name="Group 3047" transform="translate(38.049 63.416)">
      <path id="Path_7931" data-name="Path 7931" d="M254.393,491.4a1.359,1.359,0,0,1-1.359-1.359V477.359a1.359,1.359,0,0,1,2.718,0v12.683A1.359,1.359,0,0,1,254.393,491.4Z" transform="translate(-253.034 -476)" fill="#21365f"/>
    </g>
    <g id="Group_3048" data-name="Group 3048" transform="translate(19.025 5.096)">
      <path id="Path_7932" data-name="Path 7932" d="M197.736,296.578a1.359,1.359,0,0,1-1.177-.68l-6.342-10.984a1.359,1.359,0,0,1,2.353-1.359l6.342,10.985a1.359,1.359,0,0,1-1.176,2.038Z" transform="translate(-190.034 -282.875)" fill="#21365f"/>
    </g>
    <g id="Group_3049" data-name="Group 3049" transform="translate(50.732 60.016)">
      <path id="Path_7933" data-name="Path 7933" d="M302.736,478.443a1.359,1.359,0,0,1-1.177-.679l-6.342-10.984a1.359,1.359,0,0,1,2.353-1.359l6.342,10.985a1.358,1.358,0,0,1-.5,1.856A1.33,1.33,0,0,1,302.736,478.443Z" transform="translate(-295.034 -464.742)" fill="#21365f"/>
    </g>
    <g id="Group_3050" data-name="Group 3050" transform="translate(5.098 19.023)">
      <path id="Path_7934" data-name="Path 7934" d="M156.258,338.055a1.353,1.353,0,0,1-.679-.184l-10.984-6.342a1.359,1.359,0,0,1,1.359-2.353l10.984,6.342a1.36,1.36,0,0,1-.68,2.537Z" transform="translate(-143.915 -328.994)" fill="#21365f"/>
    </g>
    <g id="Group_3051" data-name="Group 3051" transform="translate(60.017 50.73)">
      <path id="Path_7935" data-name="Path 7935" d="M338.123,443.055a1.353,1.353,0,0,1-.679-.184l-10.984-6.342a1.359,1.359,0,0,1,1.359-2.353l10.984,6.342a1.36,1.36,0,0,1-.68,2.537Z" transform="translate(-325.781 -433.993)" fill="#21365f"/>
    </g>
    <g id="Group_3052" data-name="Group 3052" transform="translate(0 38.049)">
      <path id="Path_7936" data-name="Path 7936" d="M141.077,394.718H128.394a1.359,1.359,0,0,1,0-2.718h12.683a1.359,1.359,0,0,1,0,2.718Z" transform="translate(-127.035 -392)" fill="#21365f"/>
    </g>
    <g id="Group_3053" data-name="Group 3053" transform="translate(63.416 38.049)">
      <path id="Path_7937" data-name="Path 7937" d="M351.076,394.718H338.393a1.359,1.359,0,0,1,0-2.718h12.683a1.359,1.359,0,1,1,0,2.718Z" transform="translate(-337.034 -392)" fill="#21365f"/>
    </g>
    <g id="Group_3054" data-name="Group 3054" transform="translate(5.098 50.73)">
      <path id="Path_7938" data-name="Path 7938" d="M145.275,443.055a1.36,1.36,0,0,1-.68-2.537l10.984-6.342a1.359,1.359,0,0,1,1.359,2.353l-10.984,6.342A1.354,1.354,0,0,1,145.275,443.055Z" transform="translate(-143.915 -433.993)" fill="#21365f"/>
    </g>
    <g id="Group_3055" data-name="Group 3055" transform="translate(60.017 19.023)">
      <path id="Path_7939" data-name="Path 7939" d="M327.141,338.055a1.36,1.36,0,0,1-.68-2.537l10.984-6.342a1.359,1.359,0,0,1,1.359,2.353l-10.984,6.342A1.352,1.352,0,0,1,327.141,338.055Z" transform="translate(-325.781 -328.994)" fill="#21365f"/>
    </g>
    <g id="Group_3056" data-name="Group 3056" transform="translate(31.321 25.911)">
      <path id="Path_7940" data-name="Path 7940" d="M238.919,379.176a8.106,8.106,0,0,1-7.591-4.8,1.359,1.359,0,0,1,2.506-1.055,5.466,5.466,0,0,0,5.085,3.132c2.991,0,5.424-2.155,5.424-4.8,0-2.191-.945-4.8-5.448-4.8-6,0-8.141-3.886-8.141-7.524,0-4.146,3.652-7.522,8.141-7.522a8.106,8.106,0,0,1,7.591,4.8,1.359,1.359,0,0,1-2.506,1.054,5.47,5.47,0,0,0-5.085-3.132c-2.99,0-5.423,2.155-5.423,4.8,0,2.192.942,4.806,5.423,4.806,6.02,0,8.166,3.886,8.166,7.522C247.061,375.8,243.409,379.176,238.919,379.176Z" transform="translate(-230.754 -351.805)" fill="#21365f"/>
    </g>
    <g id="Group_3057" data-name="Group 3057" transform="translate(38.103 22.523)">
      <path id="Path_7941" data-name="Path 7941" d="M254.572,346.69a1.358,1.358,0,0,1-1.359-1.359v-3.389a1.359,1.359,0,1,1,2.718,0v3.389A1.358,1.358,0,0,1,254.572,346.69Z" transform="translate(-253.213 -340.584)" fill="#21365f"/>
    </g>
    <g id="Group_3058" data-name="Group 3058" transform="translate(38.103 50.564)">
      <path id="Path_7942" data-name="Path 7942" d="M254.572,439.549a1.359,1.359,0,0,1-1.359-1.359V434.8a1.359,1.359,0,0,1,2.718,0v3.389A1.359,1.359,0,0,1,254.572,439.549Z" transform="translate(-253.213 -433.443)" fill="#21365f"/>
    </g>
    <g id="Group_3059" data-name="Group 3059" transform="translate(51.867 37.784)">
      <ellipse id="Ellipse_41" data-name="Ellipse 41" cx="1.812" cy="1.812" rx="1.812" ry="1.812" fill="#21365f"/>
    </g>
    <g id="Group_3060" data-name="Group 3060" transform="translate(23.327 37.784)">
      <ellipse id="Ellipse_42" data-name="Ellipse 42" cx="1.812" cy="1.812" rx="1.812" ry="1.812" fill="#21365f"/>
    </g>
  </g>
</svg>
