<svg xmlns="http://www.w3.org/2000/svg" width="70.043" height="70.063" viewBox="0 0 70.043 70.063">
  <g id="Group_3209" data-name="Group 3209" transform="translate(-1)">
    <path id="Path_8001" data-name="Path 8001" d="M71.043,9.136A9.136,9.136,0,0,0,52.874,7.768H2.368A1.368,1.368,0,0,0,1,9.136v29.92H1v7.973A1.368,1.368,0,0,0,2.368,48.4H20.582v4.768a1.368,1.368,0,1,0,2.737,0V33.277a3.083,3.083,0,1,1,6.167,0V44.935c0,.138.006.274.017.41a4.865,4.865,0,0,0,.932,2.494v0h0l0,0a4.913,4.913,0,0,0,7.438.568l.011-.011H48.9L41.471,59.781c-.026.04-.05.081-.072.124a7.873,7.873,0,0,0-.864,3.578v5.212a1.368,1.368,0,0,0,2.737,0V63.482a5.124,5.124,0,0,1,.532-2.269L51.248,49.8a1.341,1.341,0,0,0,.071-.122,7.826,7.826,0,0,0,.52-1.282H61.908a1.369,1.369,0,0,0,1.368-1.368V39.058h0V18.169A9.15,9.15,0,0,0,71.043,9.136Zm-13.534,8a9.09,9.09,0,0,0,2.611.955q.148.029.3.053l.115.02h0V31.88a7.325,7.325,0,0,0-5.808,5.808H42.457a20.965,20.965,0,0,0,4.679-13.525A20.857,20.857,0,0,0,42.346,10.5H52.873c.022.149.05.3.08.444a9.181,9.181,0,0,0,4.557,6.192Zm3.03,24.535H32.222V40.426H60.539Zm-2.992-3.987A4.59,4.59,0,0,1,60.539,34.7v2.992Zm-53.81,0V34.7a4.59,4.59,0,0,1,2.992,2.992Zm0,2.738H20.582v1.249H3.737ZM20.582,34.56v3.128H9.544A7.324,7.324,0,0,0,3.737,31.88V16.312A7.324,7.324,0,0,0,9.544,10.5H22.832a20.857,20.857,0,0,0-4.79,13.658A21.819,21.819,0,0,0,20.582,34.56ZM3.737,10.5H6.729A4.59,4.59,0,0,1,3.737,13.5Zm0,35.157v-1.25H20.582v1.25ZM26.4,27.456a5.864,5.864,0,0,0-4.612,2.276q-.066.086-.128.173c-.014.02-.029.039-.043.059a20.038,20.038,0,0,1-.839-5.8c0-5.687,2.309-10.874,6.051-13.658h11.52c3.742,2.784,6.05,7.971,6.05,13.658,0,5.576-2.241,10.712-5.876,13.525h-6.3V33.807a1.367,1.367,0,0,0,1.872-1.272v-.9a3.237,3.237,0,0,0,3.115-3.231V25.891a3.238,3.238,0,0,0-3.234-3.234h-2.5a.5.5,0,0,1-.5-.5V19.783a.5.5,0,0,1,.5-.5h2.5a.5.5,0,0,1,.5.5,1.368,1.368,0,0,0,2.737,0,3.237,3.237,0,0,0-3.115-3.231v-.9a1.368,1.368,0,0,0-1.368-1.368h0a1.369,1.369,0,0,0-1.368,1.368v.9a3.238,3.238,0,0,0-3.115,3.231v2.378a3.237,3.237,0,0,0,3.234,3.233h2.5a.5.5,0,0,1,.5.5v2.518a.5.5,0,0,1-.5.5h-2.5a.5.5,0,0,1-.5-.5v-.23a1.369,1.369,0,0,0-1.367-1.37h0a1.369,1.369,0,0,0-1.307.963,5.818,5.818,0,0,0-1.613-.311C26.6,27.458,26.5,27.456,26.4,27.456ZM50.749,45.662h-18.4l-.008-.024c-.011-.032-.021-.065-.03-.1a2.192,2.192,0,0,1-.087-.606v-.523H60.539v1.25ZM61.912,15.535h0a6.4,6.4,0,1,1,6.4-6.4A6.363,6.363,0,0,1,61.908,15.534Z" fill="#696969"/>
    <path id="Path_8002" data-name="Path 8002" d="M421.7,36.029h-1.6v-1.6a1.368,1.368,0,1,0-2.737,0v1.6h-1.6a1.368,1.368,0,0,0,0,2.737h1.6v1.6a1.368,1.368,0,0,0,2.737,0v-1.6h1.6a1.368,1.368,0,0,0,0-2.737Z" transform="translate(-356.819 -28.535)" fill="#696969"/>
    <path id="Path_8003" data-name="Path 8003" d="M145.466,460.094a1.368,1.368,0,0,0-1.368,1.368v4.366a1.368,1.368,0,1,0,2.737,0v-4.366A1.369,1.369,0,0,0,145.466,460.094Z" transform="translate(-123.516 -397.134)" fill="#696969"/>
    <path id="Path_8004" data-name="Path 8004" d="M146.736,419.683a1.367,1.367,0,1,0-.5,1.661A1.377,1.377,0,0,0,146.736,419.683Z" transform="translate(-123.523 -361.523)" fill="#696969"/>
  </g>
</svg>
