<svg xmlns="http://www.w3.org/2000/svg" width="23.523" height="15.827" viewBox="0 0 23.523 15.827">
  <path id="Path_5854" data-name="Path 5854" d="M79.581,542.989H61.432a2.69,2.69,0,0,0-2.687,2.687v10.452a2.689,2.689,0,0,0,2.687,2.687H79.581a2.689,2.689,0,0,0,2.687-2.687V545.676A2.69,2.69,0,0,0,79.581,542.989ZM74.22,550.9l6.673-6.113a1.58,1.58,0,0,1,.271.885v10.452a1.564,1.564,0,0,1-.275.888Zm5.361-6.81a1.525,1.525,0,0,1,.379.051l-8.74,8.009a1.089,1.089,0,0,1-1.428,0l-8.74-8.009a1.535,1.535,0,0,1,.379-.051ZM60.125,557.016a1.564,1.564,0,0,1-.275-.888V545.676a1.567,1.567,0,0,1,.271-.885l6.671,6.113Zm1.307.7a1.583,1.583,0,0,1-.375-.051l6.553-6.005,1.434,1.313a2.2,2.2,0,0,0,2.923,0l1.434-1.313,6.553,6.005a1.56,1.56,0,0,1-.374.051Z" transform="translate(-58.745 -542.989)" fill="#fff"/>
</svg>
