<svg id="Group_355" data-name="Group 355" xmlns="http://www.w3.org/2000/svg" width="23.523" height="23.523" viewBox="0 0 23.523 23.523">
  <g id="Group_334" data-name="Group 334" transform="translate(0 0)">
    <g id="Group_333" data-name="Group 333">
      <path id="Path_5857" data-name="Path 5857" d="M80.2,499.017h-.689V495.48a.689.689,0,0,0-.69-.689H69.174a.688.688,0,0,0-.689.689v3.537h-1.5a2.073,2.073,0,0,0-1.949-1.379H63.57a2.073,2.073,0,0,0-1.949,1.379h-.808a2.07,2.07,0,0,0-2.067,2.067v13.784a2.07,2.07,0,0,0,2.067,2.067h.808a2.073,2.073,0,0,0,1.949,1.379h1.47a2.073,2.073,0,0,0,1.949-1.379H80.2a2.07,2.07,0,0,0,2.067-2.067V501.084A2.07,2.07,0,0,0,80.2,499.017Zm-18.7,16.54h-.69a.69.69,0,0,1-.689-.688V501.084a.69.69,0,0,1,.689-.689h.69Zm4.226.689a.69.69,0,0,1-.689.69H63.57a.69.69,0,0,1-.689-.69V499.707a.69.69,0,0,1,.689-.69h1.47a.69.69,0,0,1,.689.69Zm4.134-20.075h8.271v2.847H69.863Zm11.026,18.7a.69.69,0,0,1-.689.688H67.107V500.4H80.2a.69.69,0,0,1,.689.689Z" transform="translate(-58.745 -494.791)" fill="#fff"/>
    </g>
  </g>
  <g id="Group_336" data-name="Group 336" transform="translate(9.741 18.01)">
    <g id="Group_335" data-name="Group 335">
      <path id="Path_5858" data-name="Path 5858" d="M66.768,505.8H65.39a.689.689,0,0,0,0,1.377h1.379a.689.689,0,1,0,0-1.377Z" transform="translate(-64.701 -505.803)" fill="#fff"/>
    </g>
  </g>
  <g id="Group_338" data-name="Group 338" transform="translate(13.875 18.01)">
    <g id="Group_337" data-name="Group 337">
      <path id="Path_5859" data-name="Path 5859" d="M69.3,505.8H67.918a.689.689,0,0,0,0,1.377H69.3a.689.689,0,0,0,0-1.377Z" transform="translate(-67.229 -505.803)" fill="#fff"/>
    </g>
  </g>
  <g id="Group_340" data-name="Group 340" transform="translate(18.01 18.01)">
    <g id="Group_339" data-name="Group 339">
      <path id="Path_5860" data-name="Path 5860" d="M71.824,505.8H70.447a.689.689,0,1,0,0,1.377h1.377a.689.689,0,1,0,0-1.377Z" transform="translate(-69.757 -505.803)" fill="#fff"/>
    </g>
  </g>
  <g id="Group_342" data-name="Group 342" transform="translate(9.741 15.252)">
    <g id="Group_341" data-name="Group 341">
      <path id="Path_5861" data-name="Path 5861" d="M66.768,504.117H65.39a.689.689,0,0,0,0,1.379h1.379a.689.689,0,0,0,0-1.379Z" transform="translate(-64.701 -504.117)" fill="#fff"/>
    </g>
  </g>
  <g id="Group_344" data-name="Group 344" transform="translate(13.875 15.252)">
    <g id="Group_343" data-name="Group 343">
      <path id="Path_5862" data-name="Path 5862" d="M69.3,504.117H67.918a.689.689,0,0,0,0,1.379H69.3a.689.689,0,0,0,0-1.379Z" transform="translate(-67.229 -504.117)" fill="#fff"/>
    </g>
  </g>
  <g id="Group_346" data-name="Group 346" transform="translate(18.01 15.252)">
    <g id="Group_345" data-name="Group 345">
      <path id="Path_5863" data-name="Path 5863" d="M71.824,504.117H70.447a.689.689,0,1,0,0,1.379h1.377a.689.689,0,1,0,0-1.379Z" transform="translate(-69.757 -504.117)" fill="#fff"/>
    </g>
  </g>
  <g id="Group_348" data-name="Group 348" transform="translate(9.741 12.497)">
    <g id="Group_347" data-name="Group 347">
      <path id="Path_5864" data-name="Path 5864" d="M66.768,502.432H65.39a.689.689,0,1,0,0,1.377h1.379a.689.689,0,1,0,0-1.377Z" transform="translate(-64.701 -502.432)" fill="#fff"/>
    </g>
  </g>
  <g id="Group_350" data-name="Group 350" transform="translate(13.875 12.497)">
    <g id="Group_349" data-name="Group 349">
      <path id="Path_5865" data-name="Path 5865" d="M69.3,502.432H67.918a.689.689,0,1,0,0,1.377H69.3a.689.689,0,1,0,0-1.377Z" transform="translate(-67.229 -502.432)" fill="#fff"/>
    </g>
  </g>
  <g id="Group_352" data-name="Group 352" transform="translate(18.01 12.497)">
    <g id="Group_351" data-name="Group 351">
      <path id="Path_5866" data-name="Path 5866" d="M71.824,502.432H70.447a.689.689,0,1,0,0,1.377h1.377a.689.689,0,1,0,0-1.377Z" transform="translate(-69.757 -502.432)" fill="#fff"/>
    </g>
  </g>
  <g id="Group_354" data-name="Group 354" transform="translate(9.741 6.983)">
    <g id="Group_353" data-name="Group 353">
      <path id="Path_5867" data-name="Path 5867" d="M75.037,499.061H65.39a.688.688,0,0,0-.689.689v2.757a.688.688,0,0,0,.689.688h9.648a.69.69,0,0,0,.69-.688V499.75A.689.689,0,0,0,75.037,499.061Zm-.689,2.756H66.078v-1.379h8.271Z" transform="translate(-64.701 -499.061)" fill="#fff"/>
    </g>
  </g>
</svg>
