<svg xmlns="http://www.w3.org/2000/svg" width="206" height="89" viewBox="0 0 206 89">
  <g id="Group_2" data-name="Group 2" transform="translate(-69.833 -33.691)">
    <rect id="Rectangle_3" data-name="Rectangle 3" width="206" height="89" rx="13" transform="translate(69.833 33.691)" fill="#fff"/>
    <g id="Group_1" data-name="Group 1" transform="translate(75.797 38.142)">
      <path id="Path_1" data-name="Path 1" d="M39.3,100.81C24.485,93.916,14.7,80.265,14.7,63.982,14.087,40.424,37.733,22.4,57.17,24.331c-17.884,2.312-32.843,17.8-32.276,37.075.619,20.908,14.634,37.05,36.9,38.21,10,.511,18-2.1,24.723-7.662.342-.258.685-.532,1.035-.8-10.887,14.547-35.911,15.4-48.26,9.655" transform="translate(-14.692 -24.021)" fill="#0fa94d" fill-rule="evenodd"/>
      <path id="Path_2" data-name="Path 2" d="M86.954,23.605c17.744,0,25.411,9.936,28,13.351C103.119,28.1,93.549,23.3,78.742,27.95c-13.974,4.384-24.767,17.573-24.3,33.532C55.024,81.1,68.086,96.262,88.824,97.335a34.625,34.625,0,0,0,13.312-1.854,77.128,77.128,0,0,0,10.145-4.634c-6.846,5.9-15.022,8.676-25.327,8.156C64.683,97.847,50.667,81.745,50.049,60.89S67.107,23.605,86.954,23.605" transform="translate(-39.846 -23.605)" fill="#2e398c" fill-rule="evenodd"/>
      <path id="Path_3" data-name="Path 3" d="M73.935,58.017,103.1,45.66s2.893-1.135,1.534.942l-34.7,19.126" transform="translate(-54.005 -39.082)" fill="#2e398c" fill-rule="evenodd"/>
      <path id="Path_4" data-name="Path 4" d="M60.428,83.254,107.614,63.1s3.013-.733,1.67,1.336L59.96,90.961" transform="translate(-46.911 -51.624)" fill="#2e398c" fill-rule="evenodd"/>
      <path id="Path_5" data-name="Path 5" d="M64.54,134.76l35.218-15.6s3.02-.737,1.67,1.341L63.937,141.509" transform="translate(-49.742 -93.113)" fill="#2e398c" fill-rule="evenodd"/>
      <path id="Path_6" data-name="Path 6" d="M70.97,171.144,105.025,156.1s3.018-.729,1.657,1.341L70.363,177.88" transform="translate(-54.316 -120.002)" fill="#2e398c" fill-rule="evenodd"/>
      <path id="Path_7" data-name="Path 7" d="M88.822,203.981l31.4-13.288s3.038-.744,1.68,1.332l-31.61,18.162" transform="translate(-67.454 -145.09)" fill="#2e398c" fill-rule="evenodd"/>
      <path id="Path_8" data-name="Path 8" d="M108.036,243.137l22.679-9.528s3.021-.736,1.67,1.345l-20.514,11.971" transform="translate(-81.129 -176.513)" fill="#2e398c" fill-rule="evenodd"/>
      <path id="Path_9" data-name="Path 9" d="M149.95,274.041l13.512-5.888s3.021-.73,1.665,1.336l-10.376,6.058" transform="translate(-111.945 -201.1)" fill="#2e398c" fill-rule="evenodd"/>
      <path id="Path_10" data-name="Path 10" d="M225.893,110.233l-.043-4.816,33.022.127.087,15.2-7.932.005c-.378,0,0-1.487-.378-1.492s-.572,1.573-.959,1.557l-30.8.016c-3.744-1.285-3.957-3.008-4.16-4.9l.055-14.821c.026-3.99,2.388-5.339,9.41-5.339l32.58-.038,1.431,4.6-31.7-.029c-2.16,0-2.481,1.442-2.464,3.043l.016,11.91c0,.383.4.831,1.612.993l23.453.061v-6.086" transform="translate(-158.789 -76.199)" fill="#0fa94d" fill-rule="evenodd"/>
      <path id="Path_11" data-name="Path 11" d="M393.456,100.959c-2.081,0-3.323.88-3.323,1.874l-.013,12.412c0,.829.951,1.071,2.27,1.23l27.391.016-1.1,4.319-35.608-.02c-3.193.1-2.5-1.6-2.555-3.566l-.027-14.78.063-4.074c.031-2.927,1.111-2.633,3.964-2.647l33.64-.01,1.683,5.2" transform="translate(-278.102 -76.181)" fill="#0fa94d" fill-rule="evenodd"/>
      <path id="Path_12" data-name="Path 12" d="M546.094,100.959c-2.089,0-3.329.88-3.329,1.874l-.014,12.412c0,.829.952,1.071,2.274,1.23l27.381.016-1.088,4.319-35.6-.02c-3.194.1-2.517-1.6-2.559-3.566l-.011-14.78.039-4.074c.037-2.927,1.123-2.633,3.97-2.647l33.643-.01,1.687,5.2" transform="translate(-388.333 -76.181)" fill="#0fa94d" fill-rule="evenodd"/>
      <path id="Path_13" data-name="Path 13" d="M632.159,220.954h0V204.067h10.49v1.907H635.36v5.343h6.857v1.9H635.36v5.834h7.505v1.9" transform="translate(-458.823 -154.798)" fill="#0fa94d" fill-rule="evenodd"/>
      <path id="Path_14" data-name="Path 14" d="M578.043,220.662c-2.6,0-4.383-.412-5.369-1.232s-1.475-2.3-1.475-4.474v-6.223a4.963,4.963,0,0,1,1.6-4.117c1.084-.844,2.832-1.257,5.248-1.257A9.023,9.023,0,0,1,583,204.421a3.682,3.682,0,0,1,1.5,3.37v.5h-3.2v-.5a2.2,2.2,0,0,0-.749-1.935,4.127,4.127,0,0,0-2.511-.592,3.946,3.946,0,0,0-2.8.826,3.6,3.6,0,0,0-.85,2.677V215a4.2,4.2,0,0,0,.795,2.953,3.976,3.976,0,0,0,2.855.809,13.263,13.263,0,0,0,3.26-.4v-4.956h-3.581V211.5h6.78v8.38a21.674,21.674,0,0,1-6.459.779" transform="translate(-415.434 -154.301)" fill="#0fa94d" fill-rule="evenodd"/>
      <path id="Path_15" data-name="Path 15" d="M511,220.954h-3.057V204.067h5.073l6.037,14.585V204.067h2.96v16.887h-5.018L511,206.457" transform="translate(-369.317 -154.798)" fill="#0fa94d" fill-rule="evenodd"/>
      <path id="Path_16" data-name="Path 16" d="M444.368,220.948l5.36-16.89h4.266l5.351,16.89h-3.4l-1.082-3.82H448.6l-1.108,3.82h-1.566m5.844-14.8-2.616,9.073h5.218l-2.619-9.073Z" transform="translate(-323.628 -154.792)" fill="#0fa94d" fill-rule="evenodd"/>
      <path id="Path_17" data-name="Path 17" d="M386.512,220.954V204.067h3.21v7.251h6.769v-7.251h3.2v16.887h-3.2v-7.734h-6.769v7.734h-1.6" transform="translate(-282.004 -154.798)" fill="#0fa94d" fill-rule="evenodd"/>
      <path id="Path_18" data-name="Path 18" d="M340.811,214.957v.51a4.615,4.615,0,0,1-1.334,3.963c-.963.822-2.553,1.232-4.79,1.232a8.455,8.455,0,0,1-4.887-1.134,3.991,3.991,0,0,1-1.585-3.491v-7.516a4.738,4.738,0,0,1,1.541-3.951c1.048-.807,2.723-1.212,5.061-1.212,2.215,0,3.8.372,4.748,1.106a3.351,3.351,0,0,1,1.259,2.931l-.012.566v.5h-3.205v-.5a2.752,2.752,0,0,0-.525-2.119,3.2,3.2,0,0,0-2.233-.58,4.065,4.065,0,0,0-2.624.671,2.652,2.652,0,0,0-.816,2.194v7.52a3.368,3.368,0,0,0,.688,2.435,3.474,3.474,0,0,0,2.483.679,3.054,3.054,0,0,0,2.358-.779,3.549,3.549,0,0,0,.669-2.516v-.51" transform="translate(-240.084 -154.301)" fill="#0fa94d" fill-rule="evenodd"/>
      <path id="Path_19" data-name="Path 19" d="M263.311,220.954l5.87-8.925-5.194-7.962h3.5l3.6,6.135v-.025l3.755-6.11H278.1l-5.252,8.111,5.518,8.776h-3.425l-3.953-6.716-4.273,6.716h-1.691" transform="translate(-193.449 -154.798)" fill="#0fa94d" fill-rule="evenodd"/>
      <path id="Path_20" data-name="Path 20" d="M263.311,220.954l11.209-16.887H278.1l-5.344,8.263-5.91,8.755-.131-.131h-1.691" transform="translate(-193.446 -154.804)" fill="#fff" fill-rule="evenodd"/>
      <path id="Path_21" data-name="Path 21" d="M263.311,220.954l11.209-16.887H278.1l-5.344,8.263-5.91,8.755-.131-.131h-1.691" transform="translate(-193.446 -154.804)" fill="#2e398c" fill-rule="evenodd"/>
      <path id="Path_22" data-name="Path 22" d="M216.953,220.954h0V204.067h10.5v1.907h-7.284v5.343h6.856v1.9h-6.856v5.834h7.5v1.9" transform="translate(-160.084 -154.798)" fill="#0fa94d" fill-rule="evenodd"/>
      <path id="Path_23" data-name="Path 23" d="M278.068,287.507l-.557-2.414a2.053,2.053,0,0,0-.342-.855.939.939,0,0,0-.552-.249l.054-.181h3.181l-.059.181a1,1,0,0,0-.677.189.577.577,0,0,0-.213.446,3.118,3.118,0,0,0,.088.562l.43,1.959,1.07-1.476a5.424,5.424,0,0,0,.513-.8,1.034,1.034,0,0,0,.1-.408.422.422,0,0,0-.132-.308.706.706,0,0,0-.425-.166l.054-.181h1.989v.181a.926.926,0,0,0-.464.176,5.616,5.616,0,0,0-.762.928l-1.881,2.59-.44,1.533a3.657,3.657,0,0,0-.142.552.439.439,0,0,0,.161.348.845.845,0,0,0,.542.137h.186l-.054.181h-3.391l.049-.181a1.4,1.4,0,0,0,.6-.1.813.813,0,0,0,.337-.271,3.058,3.058,0,0,0,.23-.625Z" transform="translate(-202.736 -212.332)"/>
      <path id="Path_24" data-name="Path 24" d="M294.4,291.08a1.54,1.54,0,0,1,.726.179,1.2,1.2,0,0,1,.513.5,1.44,1.44,0,0,1,.173.7,3.227,3.227,0,0,1-.442,1.583,3.422,3.422,0,0,1-1.166,1.248,2.7,2.7,0,0,1-1.456.457,1.326,1.326,0,0,1-1.028-.4,1.377,1.377,0,0,1-.364-.968,3.027,3.027,0,0,1,.271-1.272,3.8,3.8,0,0,1,.689-1.037,3.509,3.509,0,0,1,.96-.718A2.452,2.452,0,0,1,294.4,291.08Zm-.2.259a.623.623,0,0,0-.43.152,4.082,4.082,0,0,0-.772,1.438,5.814,5.814,0,0,0-.43,2.04.52.52,0,0,0,.137.371.425.425,0,0,0,.322.147.526.526,0,0,0,.338-.116,2.691,2.691,0,0,0,.527-.79,6.972,6.972,0,0,0,.513-1.353,5.226,5.226,0,0,0,.2-1.356.575.575,0,0,0-.122-.392A.365.365,0,0,0,294.2,291.339Z" transform="translate(-213.508 -217.508)"/>
      <path id="Path_25" data-name="Path 25" d="M311.373,291.08l-.948,3.323a1.361,1.361,0,0,0-.069.318l.034.068a.123.123,0,0,0,.093.04q.224,0,.6-.4a8.41,8.41,0,0,0,1.128-1.672l.445-1.495,1.236-.044-.938,3.225a3.5,3.5,0,0,0-.117.469l.037.08.076.042a.2.2,0,0,0,.132-.058,2.815,2.815,0,0,0,.464-.572l.166.117q-.679,1.226-1.5,1.227a.7.7,0,0,1-.476-.154.512.512,0,0,1-.174-.4,2.423,2.423,0,0,1,.122-.67l.24-.826a14.463,14.463,0,0,1-.923,1.245,3.119,3.119,0,0,1-.741.646,1.211,1.211,0,0,1-.574.161.6.6,0,0,1-.447-.191.66.66,0,0,1-.188-.484,2.541,2.541,0,0,1,.122-.669l.552-1.955a2.972,2.972,0,0,0,.137-.645.226.226,0,0,0-.039-.13.262.262,0,0,0-.13-.088,1.182,1.182,0,0,0-.334-.032l.049-.185,1.666-.289Z" transform="translate(-226.228 -217.508)"/>
      <path id="Path_26" data-name="Path 26" d="M329.969,291.08l-.738,2.746a10.419,10.419,0,0,1,1.368-2.471.788.788,0,0,1,.566-.274.414.414,0,0,1,.332.149.632.632,0,0,1,.127.423,1.336,1.336,0,0,1-.23.8.41.41,0,0,1-.327.205.314.314,0,0,1-.293-.18.89.89,0,0,0-.137-.212l-.083-.032a.218.218,0,0,0-.1.029,1.093,1.093,0,0,0-.281.286,4.646,4.646,0,0,0-.427.76q-.255.532-.4.9a13.729,13.729,0,0,0-.4,1.4H327.77l.806-3.24a2.588,2.588,0,0,0,.088-.479.384.384,0,0,0-.046-.2.272.272,0,0,0-.127-.108,1.026,1.026,0,0,0-.335-.034l.044-.142,1.476-.322Z" transform="translate(-239.665 -217.508)"/>
      <path id="Path_27" data-name="Path 27" d="M353.458,284.179l-.733,2.5a6.127,6.127,0,0,0,.972-.059,1.531,1.531,0,0,0,.665-.31,1.825,1.825,0,0,0,.5-.657h.191l-.757,2.613h-.2a2.291,2.291,0,0,0,.049-.405.837.837,0,0,0-.124-.483.631.631,0,0,0-.32-.247,5.306,5.306,0,0,0-1.075-.084l-.6,2.066-.117.415a1.231,1.231,0,0,0-.024.24.478.478,0,0,0,.066.27.43.43,0,0,0,.213.153,1.847,1.847,0,0,0,.557.062l-.054.181h-3.308l.054-.181a1.109,1.109,0,0,0,.7-.178,1.623,1.623,0,0,0,.4-.78l1.183-4.055a5.081,5.081,0,0,0,.2-.822.4.4,0,0,0-.156-.291,1.105,1.105,0,0,0-.6-.139l.049-.181H356.6l-.445,1.75h-.181a2.032,2.032,0,0,0-.171-.814.96.96,0,0,0-.466-.415,2.662,2.662,0,0,0-1.038-.149Z" transform="translate(-255.222 -212.332)"/>
      <path id="Path_28" data-name="Path 28" d="M376.41,291.08a1.537,1.537,0,0,1,.725.179,1.2,1.2,0,0,1,.513.5,1.444,1.444,0,0,1,.174.7,3.236,3.236,0,0,1-.442,1.583,3.419,3.419,0,0,1-1.166,1.248,2.7,2.7,0,0,1-1.455.457,1.326,1.326,0,0,1-1.029-.4,1.378,1.378,0,0,1-.364-.968,3.026,3.026,0,0,1,.271-1.272,3.783,3.783,0,0,1,.689-1.037,3.5,3.5,0,0,1,.96-.718A2.454,2.454,0,0,1,376.41,291.08Zm-.2.259a.619.619,0,0,0-.429.152,4.074,4.074,0,0,0-.773,1.438,5.807,5.807,0,0,0-.43,2.04.52.52,0,0,0,.137.371.426.426,0,0,0,.322.147.528.528,0,0,0,.338-.116,2.682,2.682,0,0,0,.527-.79,7.014,7.014,0,0,0,.514-1.353,5.235,5.235,0,0,0,.2-1.356.573.573,0,0,0-.122-.392A.365.365,0,0,0,376.209,291.339Z" transform="translate(-272.437 -217.508)"/>
      <path id="Path_29" data-name="Path 29" d="M392.669,291.08l-.739,2.746a10.43,10.43,0,0,1,1.369-2.471.786.786,0,0,1,.567-.274.414.414,0,0,1,.332.149.635.635,0,0,1,.127.423,1.334,1.334,0,0,1-.23.8.41.41,0,0,1-.327.205.315.315,0,0,1-.293-.18.881.881,0,0,0-.137-.212l-.083-.032a.215.215,0,0,0-.1.029,1.09,1.09,0,0,0-.281.286,4.586,4.586,0,0,0-.427.76q-.255.532-.4.9a13.657,13.657,0,0,0-.4,1.4H390.47l.806-3.24a2.556,2.556,0,0,0,.088-.479.39.39,0,0,0-.046-.2.273.273,0,0,0-.128-.108,1.014,1.014,0,0,0-.334-.034l.044-.142,1.476-.322Z" transform="translate(-284.721 -217.508)"/>
      <path id="Path_30" data-name="Path 30" d="M405.492,293.777a3.943,3.943,0,0,0-.045.523.811.811,0,0,0,.213.587.753.753,0,0,0,.569.219,1.556,1.556,0,0,0,.687-.166,3.5,3.5,0,0,0,.8-.581l.147.132a3.918,3.918,0,0,1-1.094.967,2.439,2.439,0,0,1-1.178.288,1.375,1.375,0,0,1-1.128-.391,1.4,1.4,0,0,1-.313-.9,3.155,3.155,0,0,1,.466-1.6,3.589,3.589,0,0,1,1.271-1.286,3.1,3.1,0,0,1,1.615-.483.875.875,0,0,1,.62.2.642.642,0,0,1,.211.493,1.317,1.317,0,0,1-.206.694,2.329,2.329,0,0,1-.713.74,3.4,3.4,0,0,1-.962.427A5.4,5.4,0,0,1,405.492,293.777Zm.044-.255a2.486,2.486,0,0,0,.667-.173,1.525,1.525,0,0,0,.464-.352,2.186,2.186,0,0,0,.394-.611,1.7,1.7,0,0,0,.166-.691.3.3,0,0,0-.076-.216.257.257,0,0,0-.193-.078.789.789,0,0,0-.527.328A4.65,4.65,0,0,0,405.536,293.523Z" transform="translate(-294.554 -217.508)"/>
      <path id="Path_31" data-name="Path 31" d="M418.125,291.373l1.706-.293a4.864,4.864,0,0,1,.654,1.6,11.808,11.808,0,0,1,.724-.992,2.21,2.21,0,0,1,.54-.5.937.937,0,0,1,.451-.115.557.557,0,0,1,.413.147.541.541,0,0,1,.144.4.531.531,0,0,1-.144.384.479.479,0,0,1-.359.149,1.361,1.361,0,0,1-.359-.056,1.287,1.287,0,0,0-.281-.056.621.621,0,0,0-.391.146,3.113,3.113,0,0,0-.626.855,6.861,6.861,0,0,0,.664,1.789.4.4,0,0,0,.3.19.382.382,0,0,0,.22-.063,2.534,2.534,0,0,0,.434-.513l.176.1a3.3,3.3,0,0,1-.84.978,1.079,1.079,0,0,1-.616.219.912.912,0,0,1-.52-.14,1.168,1.168,0,0,1-.368-.454,6.974,6.974,0,0,1-.381-1.009q-.572.727-.9,1.062a2.126,2.126,0,0,1-.54.437,1.048,1.048,0,0,1-.459.1.552.552,0,0,1-.4-.146.514.514,0,0,1-.148-.381.551.551,0,0,1,.571-.572.724.724,0,0,1,.3.078.963.963,0,0,0,.351.118.536.536,0,0,0,.255-.059,1.468,1.468,0,0,0,.371-.318q.136-.151.5-.645a8.092,8.092,0,0,0-.733-2.082.506.506,0,0,0-.42-.22,1.7,1.7,0,0,0-.322.038Z" transform="translate(-303.964 -217.508)"/>
      <path id="Path_32" data-name="Path 32" d="M447.873,285.53l-1,3.474a1.883,1.883,0,0,0-.083.391.142.142,0,0,0,.043.1.128.128,0,0,0,.093.046.248.248,0,0,0,.166-.073,2.971,2.971,0,0,0,.528-.654l.166.1q-.737,1.285-1.569,1.285a.708.708,0,0,1-.505-.178.6.6,0,0,1-.188-.452,1.7,1.7,0,0,1,.083-.459l.679-2.336a2.012,2.012,0,0,0,.1-.508.25.25,0,0,0-.093-.191.362.362,0,0,0-.254-.083c-.049,0-.107,0-.175,0l.064-.2,1.656-.269Zm-.3-2.247a.69.69,0,0,1,.511.21.7.7,0,0,1,.208.509.716.716,0,1,1-1.224-.509A.683.683,0,0,1,447.57,283.283Z" transform="translate(-324.265 -211.958)"/>
      <path id="Path_33" data-name="Path 33" d="M458.182,291.08l-.215,1.509h-.181a1.438,1.438,0,0,0-.359-.923.945.945,0,0,0-.687-.338.536.536,0,0,0-.371.132.411.411,0,0,0-.146.318.686.686,0,0,0,.063.293,1.619,1.619,0,0,0,.283.371,7.271,7.271,0,0,1,.938,1.144,1.4,1.4,0,0,1,.166.669,1.466,1.466,0,0,1-.195.73,1.424,1.424,0,0,1-.584.552,1.693,1.693,0,0,1-.809.208,2.773,2.773,0,0,1-.7-.112,1.666,1.666,0,0,0-.41-.078.412.412,0,0,0-.191.037.493.493,0,0,0-.151.154h-.181l.24-1.627h.156a3.956,3.956,0,0,0,.32.843,1.124,1.124,0,0,0,.4.4.933.933,0,0,0,.479.15.619.619,0,0,0,.444-.168.542.542,0,0,0,.175-.4.934.934,0,0,0-.114-.444,4,4,0,0,0-.53-.669,5.382,5.382,0,0,1-.752-.957,1.188,1.188,0,0,1-.127-.557,1.142,1.142,0,0,1,.383-.879,1.538,1.538,0,0,1,1.078-.353,3.268,3.268,0,0,1,.742.108,1.548,1.548,0,0,0,.352.053.362.362,0,0,0,.307-.161Z" transform="translate(-330.697 -217.508)"/>
      <path id="Path_34" data-name="Path 34" d="M480.79,290.2a2.311,2.311,0,0,1-1.295-.328,2,2,0,0,1-.74-.895,2.754,2.754,0,0,1-.247-1.1,4.423,4.423,0,0,1,.621-2.186,4.873,4.873,0,0,1,1.673-1.764,3.9,3.9,0,0,1,2.079-.662,2.307,2.307,0,0,1,1.141.3,2.15,2.15,0,0,1,.841.846,2.242,2.242,0,0,1,.3,1.094,4.606,4.606,0,0,1-.786,2.479,5.186,5.186,0,0,1-1.768,1.8A3.684,3.684,0,0,1,480.79,290.2Zm1.93-6.538a1.435,1.435,0,0,0-.657.139,2.062,2.062,0,0,0-.564.466,4.286,4.286,0,0,0-.6.937,8.508,8.508,0,0,0-.57,1.653,7.34,7.34,0,0,0-.266,1.745,1.36,1.36,0,0,0,.26.9.831.831,0,0,0,.664.305,1.282,1.282,0,0,0,.914-.357,5.1,5.1,0,0,0,1.219-2.079,7.611,7.611,0,0,0,.471-2.44,1.505,1.505,0,0,0-.251-.97A.784.784,0,0,0,482.72,283.667Z" transform="translate(-348.029 -211.946)"/>
      <path id="Path_35" data-name="Path 35" d="M505.232,291.08l-.948,3.323a1.4,1.4,0,0,0-.069.318l.035.068a.121.121,0,0,0,.092.04q.225,0,.6-.4a8.448,8.448,0,0,0,1.128-1.672l.445-1.495,1.235-.044-.937,3.225a3.465,3.465,0,0,0-.117.469l.037.08.075.042a.2.2,0,0,0,.132-.058,2.8,2.8,0,0,0,.465-.572l.166.117q-.679,1.226-1.5,1.227a.7.7,0,0,1-.476-.154.512.512,0,0,1-.173-.4,2.422,2.422,0,0,1,.121-.67l.24-.826a14.542,14.542,0,0,1-.923,1.245,3.143,3.143,0,0,1-.74.646,1.217,1.217,0,0,1-.575.161.6.6,0,0,1-.447-.191.656.656,0,0,1-.188-.484,2.516,2.516,0,0,1,.122-.669l.552-1.955a2.935,2.935,0,0,0,.137-.645.231.231,0,0,0-.038-.13.271.271,0,0,0-.13-.088,1.179,1.179,0,0,0-.334-.032l.048-.185,1.666-.289Z" transform="translate(-365.54 -217.508)"/>
      <path id="Path_36" data-name="Path 36" d="M523.828,291.08l-.738,2.746a10.415,10.415,0,0,1,1.368-2.471.789.789,0,0,1,.566-.274.416.416,0,0,1,.333.149.634.634,0,0,1,.127.423,1.336,1.336,0,0,1-.23.8.409.409,0,0,1-.328.205.314.314,0,0,1-.292-.18.9.9,0,0,0-.137-.212l-.083-.032a.218.218,0,0,0-.1.029,1.1,1.1,0,0,0-.281.286,4.7,4.7,0,0,0-.428.76c-.17.355-.3.655-.4.9a13.661,13.661,0,0,0-.4,1.4h-1.182l.806-3.24a2.645,2.645,0,0,0,.088-.479.387.387,0,0,0-.046-.2.276.276,0,0,0-.128-.108,1.026,1.026,0,0,0-.335-.034l.045-.142,1.476-.322Z" transform="translate(-378.97 -217.508)"/>
      <path id="Path_37" data-name="Path 37" d="M544.143,283.808h2.619a5.827,5.827,0,0,1,1.251.094,1.334,1.334,0,0,1,.764.456,1.2,1.2,0,0,1,.271.769,1.416,1.416,0,0,1-.214.719,1.646,1.646,0,0,1-.643.6,5.2,5.2,0,0,1-1.311.438,2.638,2.638,0,0,1,1.275.664,1.384,1.384,0,0,1,.358.943,1.7,1.7,0,0,1-.353.994,2.024,2.024,0,0,1-.932.718,6.687,6.687,0,0,1-2.131.228H542.34l.064-.181a1.609,1.609,0,0,0,.574-.073.626.626,0,0,0,.279-.227,2.637,2.637,0,0,0,.247-.642l1.182-4.074a3.8,3.8,0,0,0,.181-.832.347.347,0,0,0-.144-.283,1.224,1.224,0,0,0-.628-.132Zm1.383,3.294-.845,2.946c.163.006.286.01.367.01a1.722,1.722,0,0,0,1.514-.608,2.237,2.237,0,0,0,.425-1.3,1.075,1.075,0,0,0-.163-.589.872.872,0,0,0-.423-.357A2.668,2.668,0,0,0,545.526,287.1Zm.116-.366a2.354,2.354,0,0,0,1.048-.211,1.455,1.455,0,0,0,.616-.657,1.911,1.911,0,0,0,.232-.862.809.809,0,0,0-.879-.851l-.268.01Z" transform="translate(-393.905 -212.332)"/>
      <path id="Path_38" data-name="Path 38" d="M569.88,291.08l-.948,3.323a1.406,1.406,0,0,0-.069.318l.035.068a.122.122,0,0,0,.092.04q.225,0,.6-.4a8.439,8.439,0,0,0,1.128-1.672l.445-1.495,1.235-.044-.937,3.225a3.483,3.483,0,0,0-.117.469l.037.08.075.042a.2.2,0,0,0,.132-.058,2.812,2.812,0,0,0,.464-.572l.166.117q-.68,1.226-1.495,1.227a.7.7,0,0,1-.476-.154.511.511,0,0,1-.173-.4,2.419,2.419,0,0,1,.121-.67l.24-.826a14.571,14.571,0,0,1-.923,1.245,3.135,3.135,0,0,1-.741.646,1.218,1.218,0,0,1-.575.161.6.6,0,0,1-.447-.191.657.657,0,0,1-.188-.484,2.523,2.523,0,0,1,.122-.669l.552-1.955a2.971,2.971,0,0,0,.137-.645.226.226,0,0,0-.039-.13.269.269,0,0,0-.13-.088,1.183,1.183,0,0,0-.335-.032l.049-.185,1.666-.289Z" transform="translate(-411.997 -217.508)"/>
      <path id="Path_39" data-name="Path 39" d="M589.394,291.08l-.214,1.509H589a1.437,1.437,0,0,0-.359-.923.946.946,0,0,0-.687-.338.536.536,0,0,0-.371.132.411.411,0,0,0-.146.318.684.684,0,0,0,.063.293,1.626,1.626,0,0,0,.283.371,7.278,7.278,0,0,1,.939,1.144,1.4,1.4,0,0,1,.166.669,1.468,1.468,0,0,1-.195.73,1.423,1.423,0,0,1-.584.552,1.693,1.693,0,0,1-.809.208,2.772,2.772,0,0,1-.7-.112,1.665,1.665,0,0,0-.41-.078.411.411,0,0,0-.191.037.488.488,0,0,0-.151.154h-.181l.24-1.627h.156a3.94,3.94,0,0,0,.321.843,1.122,1.122,0,0,0,.4.4.933.933,0,0,0,.479.15.619.619,0,0,0,.445-.168.541.541,0,0,0,.175-.4.932.932,0,0,0-.115-.444,3.983,3.983,0,0,0-.53-.669,5.371,5.371,0,0,1-.752-.957,1.189,1.189,0,0,1-.127-.557,1.143,1.143,0,0,1,.383-.879,1.538,1.538,0,0,1,1.078-.353,3.27,3.27,0,0,1,.743.108,1.548,1.548,0,0,0,.352.053.362.362,0,0,0,.307-.161Z" transform="translate(-425.732 -217.508)"/>
      <path id="Path_40" data-name="Path 40" d="M602.237,285.53l-1,3.474a1.948,1.948,0,0,0-.083.391.141.141,0,0,0,.044.1.127.127,0,0,0,.093.046.248.248,0,0,0,.166-.073,2.983,2.983,0,0,0,.528-.654l.166.1q-.737,1.285-1.568,1.285a.709.709,0,0,1-.506-.178.6.6,0,0,1-.188-.452,1.684,1.684,0,0,1,.083-.459l.68-2.336a2.014,2.014,0,0,0,.1-.508.249.249,0,0,0-.093-.191.365.365,0,0,0-.254-.083c-.05,0-.108,0-.176,0l.064-.2,1.656-.269Zm-.3-2.247a.688.688,0,0,1,.51.21.719.719,0,0,1-.51,1.227.719.719,0,0,1-.714-.718.7.7,0,0,1,.208-.509A.684.684,0,0,1,601.933,283.283Z" transform="translate(-435.853 -211.958)"/>
      <path id="Path_41" data-name="Path 41" d="M611.824,291.08l-.606,2.1a12.357,12.357,0,0,1,.914-1.256,3.255,3.255,0,0,1,.768-.665,1.273,1.273,0,0,1,.6-.176.586.586,0,0,1,.436.188.68.68,0,0,1,.18.491,2.379,2.379,0,0,1-.116.664l-.626,2.087a1.694,1.694,0,0,0-.078.356.124.124,0,0,0,.037.088l.075.039a.174.174,0,0,0,.1-.039,1.919,1.919,0,0,0,.347-.4c.029-.045.077-.114.142-.2l.185.111q-.718,1.207-1.509,1.207a.673.673,0,0,1-.474-.156.506.506,0,0,1-.171-.391,2.422,2.422,0,0,1,.117-.61l.611-2.087a1.156,1.156,0,0,0,.064-.3.126.126,0,0,0-.045-.1.138.138,0,0,0-.1-.042.729.729,0,0,0-.45.254,6.89,6.89,0,0,0-1.3,1.92l-.4,1.452h-1.246l.913-3.137a2.837,2.837,0,0,0,.133-.66.239.239,0,0,0-.039-.14.262.262,0,0,0-.126-.088,1.16,1.16,0,0,0-.333-.032l.054-.185,1.646-.289Z" transform="translate(-442.537 -217.508)"/>
      <path id="Path_42" data-name="Path 42" d="M630.25,293.777a3.768,3.768,0,0,0-.045.523.81.81,0,0,0,.212.587.756.756,0,0,0,.57.219,1.55,1.55,0,0,0,.686-.166,3.5,3.5,0,0,0,.8-.581l.147.132a3.929,3.929,0,0,1-1.095.967,2.442,2.442,0,0,1-1.177.288,1.376,1.376,0,0,1-1.129-.391,1.406,1.406,0,0,1-.313-.9,3.154,3.154,0,0,1,.467-1.6,3.586,3.586,0,0,1,1.27-1.286,3.107,3.107,0,0,1,1.615-.483.876.876,0,0,1,.621.2.642.642,0,0,1,.21.493,1.317,1.317,0,0,1-.206.694,2.327,2.327,0,0,1-.713.74,3.417,3.417,0,0,1-.962.427A5.4,5.4,0,0,1,630.25,293.777Zm.043-.255a2.479,2.479,0,0,0,.667-.173,1.539,1.539,0,0,0,.464-.352,2.186,2.186,0,0,0,.393-.611,1.684,1.684,0,0,0,.167-.691.3.3,0,0,0-.077-.216.258.258,0,0,0-.193-.078.79.79,0,0,0-.527.328A4.663,4.663,0,0,0,630.293,293.523Z" transform="translate(-456.508 -217.508)"/>
      <path id="Path_43" data-name="Path 43" d="M647.262,291.08l-.215,1.509h-.181a1.435,1.435,0,0,0-.359-.923.944.944,0,0,0-.687-.338.535.535,0,0,0-.371.132.41.41,0,0,0-.146.318.688.688,0,0,0,.063.293,1.619,1.619,0,0,0,.283.371,7.32,7.32,0,0,1,.938,1.144,1.408,1.408,0,0,1,.166.669,1.466,1.466,0,0,1-.195.73,1.425,1.425,0,0,1-.584.552,1.7,1.7,0,0,1-.809.208,2.773,2.773,0,0,1-.7-.112,1.665,1.665,0,0,0-.41-.078.41.41,0,0,0-.19.037.493.493,0,0,0-.152.154h-.181l.239-1.627h.156a3.94,3.94,0,0,0,.321.843,1.118,1.118,0,0,0,.4.4.933.933,0,0,0,.48.15.619.619,0,0,0,.444-.168.541.541,0,0,0,.176-.4.927.927,0,0,0-.115-.444,3.978,3.978,0,0,0-.529-.669,5.383,5.383,0,0,1-.752-.957,1.192,1.192,0,0,1-.127-.557,1.141,1.141,0,0,1,.383-.879,1.537,1.537,0,0,1,1.078-.353,3.265,3.265,0,0,1,.742.108,1.552,1.552,0,0,0,.352.053.361.361,0,0,0,.307-.161Z" transform="translate(-466.919 -217.508)"/>
      <path id="Path_44" data-name="Path 44" d="M660.773,291.08l-.215,1.509h-.18a1.428,1.428,0,0,0-.359-.923.945.945,0,0,0-.686-.338.536.536,0,0,0-.372.132.414.414,0,0,0-.147.318.69.69,0,0,0,.064.293,1.639,1.639,0,0,0,.283.371,7.251,7.251,0,0,1,.938,1.144,1.4,1.4,0,0,1,.167.669,1.45,1.45,0,0,1-.2.73,1.411,1.411,0,0,1-.584.552,1.688,1.688,0,0,1-.808.208,2.773,2.773,0,0,1-.7-.112,1.673,1.673,0,0,0-.411-.078.407.407,0,0,0-.19.037.5.5,0,0,0-.152.154h-.18l.239-1.627h.156a3.936,3.936,0,0,0,.319.843,1.137,1.137,0,0,0,.4.4.929.929,0,0,0,.479.15.619.619,0,0,0,.444-.168.542.542,0,0,0,.176-.4.934.934,0,0,0-.115-.444,4.109,4.109,0,0,0-.53-.669,5.374,5.374,0,0,1-.753-.957,1.189,1.189,0,0,1-.127-.557,1.14,1.14,0,0,1,.384-.879,1.534,1.534,0,0,1,1.077-.353,3.263,3.263,0,0,1,.743.108,1.547,1.547,0,0,0,.351.053.364.364,0,0,0,.308-.161Z" transform="translate(-476.536 -217.508)"/>
      <path id="Path_45" data-name="Path 45" d="M671.857,74.328h-1.508v-.6h3.958v.6H672.8v5.294h-.943Z" transform="translate(-486.005 -59.933)"/>
      <path id="Path_46" data-name="Path 46" d="M691.659,77.084a18.953,18.953,0,0,1-.085-2.31h-.05c-.183.656-.4,1.356-.661,2.047l-1.017,2.765h-.6l-.969-2.652a20.209,20.209,0,0,1-.674-2.161h-.037c0,.691-.049,1.514-.1,2.354l-.159,2.494h-.845l.49-5.9h1.017l.968,2.7a21.121,21.121,0,0,1,.662,2.03h.037a21.11,21.11,0,0,1,.613-2.03l.931-2.7h1.054l.478,5.9h-.883Z" transform="translate(-497.474 -59.933)"/>
    </g>
  </g>
</svg>
