<svg xmlns="http://www.w3.org/2000/svg" width="73.938" height="28.216" viewBox="0 0 73.938 28.216">
  <g id="Group_3210" data-name="Group 3210" transform="translate(0 -85.956)">
    <path id="Path_8005" data-name="Path 8005" d="M72.343,85.956H1.6a1.6,1.6,0,0,0-1.6,1.6v25.024a1.6,1.6,0,0,0,1.6,1.6H72.343a1.6,1.6,0,0,0,1.6-1.6V87.552A1.6,1.6,0,0,0,72.343,85.956Zm-1.6,25.024H3.192V89.148H70.747Z" transform="translate(0 0)" fill="#696969"/>
    <path id="Path_8006" data-name="Path 8006" d="M46.976,128.6l3.118-2.954-.875,4.211h2.953l-.93-4.156,3.172,2.9,1.531-2.68-3.938-1.258,3.938-1.258-1.422-2.57L51.3,123.649l.875-4.184H49.219l.93,4.157-3.281-2.789-1.422,2.57,3.938,1.2-3.938,1.313Z" transform="translate(-33.358 -24.597)" fill="#696969"/>
    <path id="Path_8007" data-name="Path 8007" d="M102.7,128.6l3.117-2.954-.875,4.211h2.953l-.929-4.156,3.172,2.9,1.531-2.68-3.938-1.258,3.938-1.258-1.422-2.57-3.227,2.817.875-4.184h-2.953l.93,4.157-3.281-2.789-1.422,2.57,3.938,1.2-3.938,1.313Z" transform="translate(-74.26 -24.597)" fill="#696969"/>
    <path id="Path_8008" data-name="Path 8008" d="M159.419,128.6l3.117-2.954-.875,4.211h2.953l-.93-4.156,3.172,2.9,1.531-2.68-3.938-1.258,3.938-1.258-1.422-2.57-3.227,2.817.875-4.184h-2.953l.93,4.157-3.281-2.789-1.422,2.57,3.938,1.2-3.938,1.313Z" transform="translate(-115.895 -24.597)" fill="#696969"/>
    <path id="Path_8009" data-name="Path 8009" d="M215.326,130.506h1.862v-2.088h1.051v-1.45h-1.051v-5.9h-2.115l-3.471,5.745v1.609h3.724v2.088Zm-2.354-3.538,2.367-4.056h.027c0,.293-.04,1.769-.04,4.056Z" transform="translate(-155.323 -25.77)" fill="#696969"/>
  </g>
</svg>
