<svg xmlns="http://www.w3.org/2000/svg" width="71.873" height="71.867" viewBox="0 0 71.873 71.867">
  <g id="Group_3240" data-name="Group 3240" transform="translate(0 -0.023)">
    <g id="Group_3233" data-name="Group 3233" transform="translate(21.443 53.905)">
      <g id="Group_3232" data-name="Group 3232">
        <path id="Path_8032" data-name="Path 8032" d="M155.529,384.986a1.464,1.464,0,0,0-.08-.264,1.424,1.424,0,0,0-.129-.241,1.363,1.363,0,0,0-.387-.387,1.385,1.385,0,0,0-.243-.129,1.318,1.318,0,0,0-.262-.08,1.382,1.382,0,0,0-.547,0,1.36,1.36,0,0,0-.264.08,1.424,1.424,0,0,0-.241.129,1.363,1.363,0,0,0-.387.387,1.331,1.331,0,0,0-.129.241,1.359,1.359,0,0,0-.08.264,1.349,1.349,0,0,0,0,.547,1.319,1.319,0,0,0,.08.263,1.3,1.3,0,0,0,.129.243,1.364,1.364,0,0,0,.387.387,1.414,1.414,0,0,0,.241.129,1.362,1.362,0,0,0,.264.08,1.35,1.35,0,0,0,.547,0,1.32,1.32,0,0,0,.262-.08,1.386,1.386,0,0,0,.243-.129,1.364,1.364,0,0,0,.387-.387,1.385,1.385,0,0,0,.129-.243,1.418,1.418,0,0,0,.08-.263,1.349,1.349,0,0,0,0-.547Z" transform="translate(-152.75 -383.857)" fill="#696969"/>
      </g>
    </g>
    <g id="Group_3235" data-name="Group 3235" transform="translate(0 43.526)">
      <g id="Group_3234" data-name="Group 3234">
        <path id="Path_8033" data-name="Path 8033" d="M64.573,321.862l-.017-.042c-1.292-3.023-4.322-4.141-7.908-2.916l-9.78,2.7A6.411,6.411,0,0,0,42.9,317.7l-.037-.013-10.75-3.649a11.088,11.088,0,0,0-8.945-4.116c-3.667,0-6.912,2.516-8.768,5.258H1.4a1.4,1.4,0,0,0-1.4,1.4v17.7a1.4,1.4,0,0,0,1.4,1.4H9.75a1.4,1.4,0,0,0,1.4-1.4V333.07h3.914a1.4,1.4,0,0,0,1.4-1.4v-.4c2.282.2,3.032.632,5.128,1.84a84.949,84.949,0,0,0,8.433,4.306l.062.026a12.6,12.6,0,0,0,4.516.851,11.189,11.189,0,0,0,4.651-1l21.617-7.74c.038-.014.076-.029.113-.046C63.058,328.553,66.137,325.875,64.573,321.862ZM8.346,332.878H2.808V317.988H8.346Zm5.318-2.616h-2.51V317.988h2.51Zm46.206-3.334-21.607,7.736-.063.024-.057.024a9.1,9.1,0,0,1-6.991.119A81.312,81.312,0,0,1,23,330.67a12.635,12.635,0,0,0-6.53-2.221V317.143c1.331-2.181,3.911-4.413,6.693-4.413a8.1,8.1,0,0,1,6.872,3.228,1.4,1.4,0,0,0,.745.594l11.156,3.787c1.782.669,2.723,2.195,2.291,3.716a2.735,2.735,0,0,1-3.361,1.888l-12.577-3.986a1.4,1.4,0,0,0-.848,2.676l12.6,3.992.04.012a5.51,5.51,0,0,0,4.214-.49,5.506,5.506,0,0,0,2.633-3.326q.048-.171.086-.341l10.54-2.92c1.522-.52,3.521-.707,4.41,1.342C62.886,325.309,60.492,326.632,59.87,326.929Z" transform="translate(0 -309.922)" fill="#696969"/>
      </g>
    </g>
    <g id="Group_3237" data-name="Group 3237" transform="translate(47.623 17.356)">
      <g id="Group_3236" data-name="Group 3236">
        <path id="Path_8034" data-name="Path 8034" d="M342.031,124.627a1.364,1.364,0,0,0-.081-.264,1.384,1.384,0,0,0-.517-.629,1.424,1.424,0,0,0-.241-.129,1.4,1.4,0,0,0-.811-.08,1.319,1.319,0,0,0-.262.08,1.385,1.385,0,0,0-.243.129,1.364,1.364,0,0,0-.387.387,1.424,1.424,0,0,0-.129.241,1.36,1.36,0,0,0-.08.264,1.348,1.348,0,0,0,0,.547,1.318,1.318,0,0,0,.08.263,1.385,1.385,0,0,0,.129.243,1.364,1.364,0,0,0,.387.387,1.385,1.385,0,0,0,.243.129,1.418,1.418,0,0,0,.262.08,1.384,1.384,0,0,0,.274.028,1.408,1.408,0,0,0,.275-.028,1.486,1.486,0,0,0,.263-.08,1.424,1.424,0,0,0,.241-.129,1.364,1.364,0,0,0,.387-.387,1.3,1.3,0,0,0,.129-.243,1.322,1.322,0,0,0,.081-.263,1.418,1.418,0,0,0,0-.547Z" transform="translate(-339.25 -123.498)" fill="#696969"/>
      </g>
    </g>
    <g id="Group_3239" data-name="Group 3239" transform="translate(4.168 0.023)">
      <g id="Group_3238" data-name="Group 3238">
        <path id="Path_8035" data-name="Path 8035" d="M95.992,4.778H87.646a1.4,1.4,0,0,0-1.4,1.4V7.393H82.328a1.4,1.4,0,0,0-1.4,1.4v.4c-2.282-.2-3.032-.632-5.128-1.84a84.941,84.941,0,0,0-8.434-4.306L67.3,3.029a11.943,11.943,0,0,0-9.166.144L52.486,5.2,47.724.434a1.4,1.4,0,0,0-1.985,0L30.107,16.066a1.392,1.392,0,0,0,0,1.985L56.819,44.764a1.517,1.517,0,0,0,1.985,0L73.076,30.492c.371.032.756.049,1.155.049,3.667,0,6.912-2.516,8.768-5.258H95.992a1.4,1.4,0,0,0,1.4-1.4V6.181A1.4,1.4,0,0,0,95.992,4.778ZM46.732,3.412l3.2,3.2a6.12,6.12,0,0,1-6.4,0ZM36.285,20.259l-3.2-3.2,3.2-3.2a6.12,6.12,0,0,1,0,6.4ZM57.812,41.786l-3.2-3.2a6.112,6.112,0,0,1,6.4,0Zm5.221-5.221a8.921,8.921,0,0,0-10.443,0L38.307,22.281a8.921,8.921,0,0,0,0-10.444l3.2-3.2a8.921,8.921,0,0,0,10.444,0L54.99,11.67a5.564,5.564,0,0,0-4.177,3.061,8,8,0,1,0,9.2,9.9l4.74,1.609a8.962,8.962,0,0,0,1.487,7.115ZM54.5,22.764l.037.013,2.807.953a5.195,5.195,0,1,1-7.05-5.933A6.215,6.215,0,0,0,54.5,22.764Zm13.763,8.572a6.14,6.14,0,0,1-.9-2.919,10.915,10.915,0,0,0,2.476,1.34ZM80.924,23.32c-1.331,2.181-3.911,4.414-6.693,4.414a10.217,10.217,0,0,1-1.464-.1h-.005a8.04,8.04,0,0,1-5.2-2.846c-.029-.042-.151-.2-.169-.228a1.4,1.4,0,0,0-.774-.643L55.458,20.125c-1.781-.668-2.723-2.194-2.291-3.715V16.4a2.735,2.735,0,0,1,3.359-1.883L69.1,18.506a1.4,1.4,0,1,0,.848-2.676l-10-3.17-.087-.087,0,0L54.682,7.391,59.133,5.8l.048-.018.015-.006.057-.024a9.1,9.1,0,0,1,6.991-.119,81.315,81.315,0,0,1,8.151,4.163,12.633,12.633,0,0,0,6.53,2.221Zm5.318-.844h-2.51V10.2h2.51Zm8.346,0H89.05V7.585h5.539Z" transform="translate(-29.691 -0.023)" fill="#696969"/>
      </g>
    </g>
  </g>
</svg>
