<svg xmlns="http://www.w3.org/2000/svg" width="76.688" height="65.579" viewBox="0 0 76.688 65.579">
  <g id="Group_3229" data-name="Group 3229" transform="translate(0.25 -4.416)">
    <g id="Group_3216" data-name="Group 3216" transform="translate(0 4.666)">
      <g id="Group_3211" data-name="Group 3211">
        <path id="Path_8010" data-name="Path 8010" d="M34.275,34.075H.611A.61.61,0,0,1,0,33.464V5.277a.61.61,0,0,1,.611-.611H34.275a.61.61,0,0,1,.611.611V33.464A.61.61,0,0,1,34.275,34.075ZM1.221,32.853H33.666V5.887H1.221Z" transform="translate(0 -4.666)" fill="#696969" stroke="#696969" stroke-width="0.5"/>
      </g>
      <g id="Group_3212" data-name="Group 3212" transform="translate(0 6.577)">
        <path id="Path_8011" data-name="Path 8011" d="M34.275,11.411H.611a.61.61,0,1,1,0-1.22H34.275a.61.61,0,1,1,0,1.22Z" transform="translate(0 -10.191)" fill="#696969" stroke="#696969" stroke-width="0.5"/>
      </g>
      <g id="Group_3213" data-name="Group 3213" transform="translate(3.539 2.232)">
        <path id="Path_8012" data-name="Path 8012" d="M4.654,9.892A1.676,1.676,0,1,1,6.328,8.218,1.68,1.68,0,0,1,4.654,9.892Zm0-2.13a.454.454,0,1,0,.452.456A.458.458,0,0,0,4.654,7.762Z" transform="translate(-2.973 -6.541)" fill="#696969" stroke="#696969" stroke-width="0.5"/>
      </g>
      <g id="Group_3214" data-name="Group 3214" transform="translate(10.706 2.232)">
        <path id="Path_8013" data-name="Path 8013" d="M10.667,9.892a1.676,1.676,0,1,1,1.676-1.674A1.676,1.676,0,0,1,10.667,9.892Zm0-2.13a.454.454,0,0,0,0,.908.454.454,0,1,0,0-.908Z" transform="translate(-8.993 -6.541)" fill="#696969" stroke="#696969" stroke-width="0.5"/>
      </g>
      <g id="Group_3215" data-name="Group 3215" transform="translate(17.871 2.232)">
        <path id="Path_8014" data-name="Path 8014" d="M16.687,9.892a1.676,1.676,0,1,1,1.675-1.674A1.676,1.676,0,0,1,16.687,9.892Zm0-2.13a.454.454,0,1,0,.454.456A.456.456,0,0,0,16.687,7.762Z" transform="translate(-15.012 -6.541)" fill="#696969" stroke="#696969" stroke-width="0.5"/>
      </g>
    </g>
    <g id="Group_3222" data-name="Group 3222" transform="translate(41.302 40.336)">
      <g id="Group_3217" data-name="Group 3217">
        <path id="Path_8015" data-name="Path 8015" d="M68.97,64.039H35.306a.61.61,0,0,1-.611-.611V35.241a.61.61,0,0,1,.611-.611H68.97a.61.61,0,0,1,.611.611V63.428A.61.61,0,0,1,68.97,64.039ZM35.915,62.817H68.359V35.851H35.915Z" transform="translate(-34.695 -34.63)" fill="#696969" stroke="#696969" stroke-width="0.5"/>
      </g>
      <g id="Group_3218" data-name="Group 3218" transform="translate(0 6.576)">
        <path id="Path_8016" data-name="Path 8016" d="M68.97,41.375H35.306a.611.611,0,1,1,0-1.221H68.97a.611.611,0,1,1,0,1.221Z" transform="translate(-34.695 -40.154)" fill="#696969" stroke="#696969" stroke-width="0.5"/>
      </g>
      <g id="Group_3219" data-name="Group 3219" transform="translate(3.539 2.232)">
        <path id="Path_8017" data-name="Path 8017" d="M39.348,39.856a1.676,1.676,0,1,1,1.674-1.674A1.68,1.68,0,0,1,39.348,39.856Zm0-2.13a.454.454,0,1,0,.454.456A.459.459,0,0,0,39.348,37.726Z" transform="translate(-37.668 -36.505)" fill="#696969" stroke="#696969" stroke-width="0.5"/>
      </g>
      <g id="Group_3220" data-name="Group 3220" transform="translate(10.706 2.232)">
        <path id="Path_8018" data-name="Path 8018" d="M45.362,39.856a1.676,1.676,0,1,1,1.676-1.674A1.676,1.676,0,0,1,45.362,39.856Zm0-2.13a.454.454,0,0,0,0,.908.454.454,0,1,0,0-.908Z" transform="translate(-43.688 -36.505)" fill="#696969" stroke="#696969" stroke-width="0.5"/>
      </g>
      <g id="Group_3221" data-name="Group 3221" transform="translate(17.871 2.232)">
        <path id="Path_8019" data-name="Path 8019" d="M51.382,39.856a1.676,1.676,0,1,1,1.674-1.674A1.676,1.676,0,0,1,51.382,39.856Zm0-2.13a.454.454,0,1,0,.454.456A.456.456,0,0,0,51.382,37.726Z" transform="translate(-49.707 -36.505)" fill="#696969" stroke="#696969" stroke-width="0.5"/>
      </g>
    </g>
    <g id="Group_3223" data-name="Group 3223" transform="translate(37.201 16.631)">
      <path id="Path_8020" data-name="Path 8020" d="M49.548,33.55a.611.611,0,0,1-.611-.611v-17H31.861a.611.611,0,1,1,0-1.221H49.548a.61.61,0,0,1,.611.611V32.939A.611.611,0,0,1,49.548,33.55Z" transform="translate(-31.25 -14.717)" fill="#696969" stroke="#696969" stroke-width="0.5"/>
    </g>
    <g id="Group_3224" data-name="Group 3224" transform="translate(51.819 30.631)">
      <path id="Path_8021" data-name="Path 8021" d="M47.21,31.31a.612.612,0,0,1-.464-.215l-3.07-3.612a.61.61,0,1,1,.93-.789l2.6,3.063,2.6-3.063a.609.609,0,1,1,.929.789l-3.065,3.612a.61.61,0,0,1-.464.215Z" transform="translate(-43.53 -26.477)" fill="#696969" stroke="#696969" stroke-width="0.5"/>
    </g>
    <g id="Group_3225" data-name="Group 3225" transform="translate(16.246 36.952)">
      <path id="Path_8022" data-name="Path 8022" d="M31.943,50.616H14.257a.609.609,0,0,1-.61-.61V32.4a.61.61,0,1,1,1.22,0v17H31.943a.61.61,0,1,1,0,1.22Z" transform="translate(-13.647 -31.787)" fill="#696969" stroke="#696969" stroke-width="0.5"/>
    </g>
    <g id="Group_3226" data-name="Group 3226" transform="translate(13.183 36.952)">
      <path id="Path_8023" data-name="Path 8023" d="M11.685,36.619a.611.611,0,0,1-.465-1.006L14.281,32a.614.614,0,0,1,.465-.215h0a.608.608,0,0,1,.465.215l3.069,3.611a.61.61,0,0,1-.93.79l-2.6-3.063L12.15,36.4A.614.614,0,0,1,11.685,36.619Z" transform="translate(-11.074 -31.787)" fill="#696969" stroke="#696969" stroke-width="0.5"/>
    </g>
    <g id="Group_3227" data-name="Group 3227" transform="translate(4.334 19.387)">
      <path id="Path_8024" data-name="Path 8024" d="M5.62,20.26,3.641,19.7l.411-1.292,1.979.755-.083-2.13H7.3l-.083,2.18,1.952-.746.4,1.308-2.03.57,1.283,1.677-1.107.8L6.542,21,5.41,22.759,4.3,21.988Z" transform="translate(-3.641 -17.032)" fill="#696969" stroke="#696969" stroke-width="0.5"/>
      <path id="Path_8025" data-name="Path 8025" d="M11.847,20.26,9.868,19.7l.411-1.292,1.979.755-.083-2.13h1.35l-.083,2.18,1.954-.746.4,1.308-2.03.57,1.282,1.677-1.106.8L12.769,21l-1.132,1.761-1.114-.771Z" transform="translate(-2.455 -17.032)" fill="#696969" stroke="#696969" stroke-width="0.5"/>
      <path id="Path_8026" data-name="Path 8026" d="M18.074,20.26l-1.98-.562.411-1.292,1.98.755-.083-2.13H19.75l-.083,2.18,1.954-.746.4,1.308-2.03.57,1.283,1.677-1.107.8L19,21l-1.132,1.761-1.115-.771Z" transform="translate(-1.269 -17.032)" fill="#696969" stroke="#696969" stroke-width="0.5"/>
      <path id="Path_8027" data-name="Path 8027" d="M24.3,20.26,22.322,19.7l.411-1.292,1.979.755-.083-2.13h1.35l-.083,2.18,1.954-.746.4,1.308-2.029.57L27.5,22.021l-1.107.8L25.223,21l-1.132,1.761-1.114-.771Z" transform="translate(-0.083 -17.032)" fill="#696969" stroke="#696969" stroke-width="0.5"/>
    </g>
    <g id="Group_3228" data-name="Group 3228" transform="translate(45.635 55.056)">
      <path id="Path_8028" data-name="Path 8028" d="M40.315,50.223l-1.98-.562.411-1.292,1.98.756-.083-2.131h1.349l-.083,2.18,1.954-.745.4,1.308-2.03.57,1.282,1.677-1.106.8-1.174-1.829-1.132,1.762-1.115-.773Z" transform="translate(-38.335 -46.995)" fill="#696969" stroke="#696969" stroke-width="0.5"/>
      <path id="Path_8029" data-name="Path 8029" d="M46.542,50.223l-1.979-.562.411-1.292,1.979.756-.083-2.131h1.35l-.083,2.18,1.954-.745.4,1.308-2.03.57,1.283,1.677-1.107.8-1.174-1.829-1.132,1.762-1.114-.773Z" transform="translate(-37.149 -46.995)" fill="#696969" stroke="#696969" stroke-width="0.5"/>
      <path id="Path_8030" data-name="Path 8030" d="M52.769,50.223l-1.98-.562L51.2,48.37l1.98.756L53.1,46.995h1.349l-.083,2.18,1.954-.745.4,1.308-2.03.57,1.282,1.677-1.106.8L53.69,50.962l-1.132,1.762-1.114-.773Z" transform="translate(-35.963 -46.995)" fill="#696969" stroke="#696969" stroke-width="0.5"/>
      <path id="Path_8031" data-name="Path 8031" d="M59,50.223l-1.979-.562.411-1.292,1.979.756-.083-2.131h1.349l-.083,2.18,1.954-.745.4,1.308-2.03.57L62.2,51.985l-1.107.8-1.174-1.829-1.132,1.762-1.115-.773Z" transform="translate(-34.777 -46.995)" fill="#696969" stroke="#696969" stroke-width="0.5"/>
    </g>
  </g>
</svg>
