<svg xmlns="http://www.w3.org/2000/svg" width="70" height="68.853" viewBox="0 0 70 68.853">
  <g id="Group_3208" data-name="Group 3208" transform="translate(-1)">
    <path id="Path_7997" data-name="Path 7997" d="M70.852,25.474h0l-.012-.03,0-.008-5.475-13.41a2.059,2.059,0,0,0-1.912-1.268h-5.49V2.017A2.038,2.038,0,0,0,55.9,0H16.1a2.038,2.038,0,0,0-2.059,2.017v8.741H8.549a2.059,2.059,0,0,0-1.912,1.268L1.163,25.436l0,.008-.012.03h0A1.972,1.972,0,0,0,1,26.223v2.959a8.439,8.439,0,0,0,4.118,7.213V66.836a2.038,2.038,0,0,0,2.059,2.017H64.824a2.038,2.038,0,0,0,2.059-2.017V36.395A8.439,8.439,0,0,0,71,29.182V26.223a1.974,1.974,0,0,0-.148-.749ZM18.157,4.034H53.843v12.1H18.157ZM9.943,14.793h4.1v3.362A2.038,2.038,0,0,0,16.1,20.172H55.9a2.038,2.038,0,0,0,2.059-2.017V14.793h4.1L65.9,24.206H6.1Zm34.7,13.448h9.059v.941a4.53,4.53,0,0,1-9.059,0Zm-13.176,0h9.059v.941a4.53,4.53,0,0,1-9.059,0Zm-13.176,0h9.059v.941a4.53,4.53,0,0,1-9.059,0Zm-13.176.941v-.941h9.059v.941a4.53,4.53,0,0,1-9.059,0ZM17.471,64.819V45.992H29.824V64.819Zm45.294,0H33.941V43.975a2.038,2.038,0,0,0-2.059-2.017H15.412a2.038,2.038,0,0,0-2.059,2.017V64.819H9.235V37.644c.137.006.274.01.412.01a8.7,8.7,0,0,0,6.588-2.994,8.746,8.746,0,0,0,13.176,0,8.746,8.746,0,0,0,13.176,0,8.746,8.746,0,0,0,13.176,0,8.7,8.7,0,0,0,6.588,2.994c.138,0,.275,0,.412-.01Zm4.118-35.637a4.53,4.53,0,0,1-9.059,0v-.941h9.059Z" fill="#696969"/>
    <path id="Path_7998" data-name="Path 7998" d="M158.017,64.034h22.861a2.017,2.017,0,1,0,0-4.034H158.017a2.017,2.017,0,0,0,0,4.034Z" transform="translate(-133.448 -51.931)" fill="#696969"/>
    <path id="Path_7999" data-name="Path 7999" d="M289.155,312H273.017A2.017,2.017,0,0,0,271,314.017v12.1a2.017,2.017,0,0,0,2.017,2.017h16.137a2.017,2.017,0,0,0,2.017-2.017v-12.1A2.017,2.017,0,0,0,289.155,312Zm-2.017,12.1h-12.1v-8.069h12.1Z" transform="translate(-232.629 -270.043)" fill="#696969"/>
    <path id="Path_8000" data-name="Path 8000" d="M163.017,382A2.017,2.017,0,0,0,161,384.017v2.69a2.017,2.017,0,1,0,4.034,0v-2.69A2.017,2.017,0,0,0,163.017,382Z" transform="translate(-138.011 -330.629)" fill="#696969"/>
  </g>
</svg>
